<?xml version="1.0" encoding="utf-8"?>
<!-- Generator: Adobe Illustrator 26.4.1, SVG Export Plug-In . SVG Version: 6.00 Build 0)  -->
<svg version="1.1" id="Layer_1" xmlns="http://www.w3.org/2000/svg" xmlns:xlink="http://www.w3.org/1999/xlink" x="0px" y="0px"
	 viewBox="0 0 2356.5 566" style="enable-background:new 0 0 2356.5 566;" xml:space="preserve">
<style type="text/css">
	.st0{fill-rule:evenodd;clip-rule:evenodd;fill:#373B45;}
</style>
<g>
	<path class="st0" d="M440.9,10.2c-16.9,8.4-22,32.1-38.9,22c-20.3-10.1-65.9-23.6-82.8-27c-25.3-5.1-55.7-6.7-82.8-3.4
		C160.5,10.2,98,54.1,55.7,109.9C5.1,177.4,0,238.2,0,305.8C0,444.4,116.6,567.7,239.9,566c99.7-1.7,195.9-18.6,239.9-182.4
		l-15.2-8.4c-35.5,131.7-119.9,175.7-197.6,162.2C91.2,506.9,99.7,370,99.7,261.9c0-98,55.7-238.2,163.9-238.2
		c69.3,0,113.2,6.8,182.4,172.3l11.8,3.4L440.9,10.2z M949.4,292.3c13.5-32.1,22-62.5,81.1-64.2c69.3-1.7,79.4,71,79.4,111.5v118.2
		c-1.7,43.9,5.1,74.3-45.6,79.4l1.7,11.8h172.3v-10.1c-49-15.2-55.7-35.5-54.1-81.1V326.1c0-30.4-6.8-57.4-25.3-87.8
		c-20.3-28.7-62.5-35.5-87.8-35.5c-40.5,0-98,15.2-125,43.9c0,0-3.4-25.3-22-43.9c0-3.4-106.4,18.6-106.4,18.6v11.8
		c45.6,0,54.1,43.9,57.4,79.4v145.3c0,38.9-1.7,69.3-47.3,82.8v8.4h175.7l1.7-10.1c-40.5-10.1-55.7-18.6-55.7-81.1L949.4,292.3
		L949.4,292.3z"/>
	<path class="st0" d="M674,484.9c-1.7,23.7-10.1,43.9-59.1,50.7c-32.1,5.1-67.6-22-67.6-55.8c0-57.4,79.4-101.3,131.8-109.8
		L674,484.9L674,484.9z M665.6,346.4c-45.6,43.9-187.5,6.8-190.9,128.4c0,49,47.3,81.1,99.7,81.1c43.9,0,74.3-8.4,108.1-33.8
		c1.7,27,60.8,40.6,91.2,38.9c32.1-3.4,38.8-13.5,60.8-35.5l-10.1-15.2c-8.4,10.1-22,28.7-50.7,21.9c-22-3.4-22-45.6-22-62.5V309.2
		c0-28.7,0-57.4-27-79.4c-25.3-18.6-62.5-23.7-92.9-23.7c-49,0-141.9,6.8-141.9,64.2c0,20.3,10.1,33.8,30.4,33.8
		c25.3,0,33.8-16.9,40.5-38.8c8.4-30.4,23.6-42.2,60.8-42.2c43.9,0,50.7,49,50.7,82.8C672.3,319.3,675.7,319.3,665.6,346.4
		L665.6,346.4z M1859.9,442.7c-11.8,79.4-52.4,94.6-82.8,94.6c-86.2,0-113.2-104.7-113.2-162.2c0-55.8,30.4-152,103-152
		c30.4,0,81.1,15.2,92.9,101.4L1859.9,442.7L1859.9,442.7L1859.9,442.7z M1858.2,238.3c-30.4-25.3-67.6-37.2-109.8-37.2
		c-52.4,0-163.8,38.9-165.5,180.7c-1.7,94.6,72.6,174,172.3,174c38.9,0,79.4-10.1,108.1-37.2l8.4,37.2l118.2-15.2l-5.1-8.5
		c-50.7-6.7-49-52.4-50.7-79.4V1.8L1794,5.1v10.1c52.4,3.4,64.2,33.8,64.2,99.7L1858.2,238.3L1858.2,238.3L1858.2,238.3z"/>
	<path class="st0" d="M2250.1,10.2h70.9v163.9h-70.9V10.2z M1974.8,10.2h71v163.9h-71V10.2z"/>
	<path class="st0" d="M1444.4,484.9c-1.7,23.7-10.1,43.9-59.1,50.7c-30.4,5.1-67.6-22-67.6-55.8c0-57.4,79.4-101.3,131.8-109.8
		L1444.4,484.9L1444.4,484.9z M1435.9,346.4c-45.6,43.9-187.5,6.8-189.2,128.4c-1.7,49,45.6,81.1,98,81.1
		c43.9,0,74.3-8.4,108.1-33.8c3.4,27,60.8,40.6,91.2,38.9c32.1-3.4,38.9-13.5,60.8-35.5l-10.1-15.2c-8.5,10.1-22,28.7-50.7,21.9
		c-22-3.4-22-45.6-22-62.5V309.2c0-28.7,0-57.4-27-79.4c-25.3-18.6-62.5-23.7-92.9-23.7c-49,0-140.2,6.8-140.2,64.2
		c0,20.3,8.4,33.8,28.7,33.8c27,0,35.5-16.9,40.6-38.8c8.4-30.4,23.6-42.2,60.8-42.2c43.9,0,50.7,49,50.7,82.8
		C1442.7,319.3,1446,319.3,1435.9,346.4L1435.9,346.4z M2196.1,484.9c-1.7,23.7-11.8,43.9-59.1,50.7c-32.1,5.1-67.6-22-67.6-55.8
		c0-57.4,79.4-101.3,131.7-109.8L2196.1,484.9z M2187.6,346.4c-45.6,43.9-187.5,6.8-190.9,128.4c0,49,47.3,81.1,98,81.1
		c45.6,0,74.3-8.4,108.1-33.8c3.4,27,62.5,40.6,92.9,38.9c30.4-3.4,38.8-13.5,60.8-35.5l-10.1-15.2c-8.4,10.1-22,28.7-50.7,21.9
		c-22-3.4-23.7-45.6-23.7-62.5V309.2c0-28.7,0-57.4-25.3-79.4c-25.4-18.6-62.5-23.7-94.6-23.7c-47.3,0-140.2,6.8-140.2,64.2
		c0,20.3,8.4,33.8,28.7,33.8c27,0,35.5-16.9,42.2-38.8c8.4-30.4,23.7-42.2,59.1-42.2c43.9,0,52.4,49,52.4,82.8
		C2194.4,319.3,2197.8,319.3,2187.6,346.4L2187.6,346.4z"/>
	<path class="st0" d="M2143.7,182.5l1.6-38.9l-1.4-1.4l-45.9,8.2l1.7-18.6v-1.7v-1.7l-35.5-32.1l11.8-6.8h1.7v-1.7l-6.8-25.3
		l25.4,6.8h1.7v-1.7l6.8-11.8l16.9,23.6c1.7,1.7,0,1.7,1.7,1.7v-1.7l-8.5-47.3l16.9,11.8h1.7v-1.7l11.8-32.1l11.8,32.1
		c1.7,1.7,0,1.7,1.7,1.7h1.7l16.9-11.8l-10.2,47.3c0,1.7,0,1.7,1.7,1.7h1.7l16.9-25.3l5.1,11.8c0,1.7,0,1.7,1.7,1.7l25.4-6.8
		l-5.1,25.3v3.4l11.8,5.1l-33.8,32.1c0,1.7,0,1.7-1.7,1.7v1.7l1.7,18.6l-45.6-8.4v40.5L2143.7,182.5L2143.7,182.5z"/>
</g>
</svg>
