<?xml version="1.0" encoding="utf-8"?>
<!-- Generator: Adobe Illustrator 26.4.1, SVG Export Plug-In . SVG Version: 6.00 Build 0)  -->
<svg version="1.1" id="Layer_1" xmlns="http://www.w3.org/2000/svg" xmlns:xlink="http://www.w3.org/1999/xlink" x="0px" y="0px"
	 viewBox="0 0 2500 897" style="enable-background:new 0 0 2500 897;" xml:space="preserve">
<style type="text/css">
	.st0{fill:#373B45;}
</style>
<path class="st0" d="M1655.8,674c-0.1,0.1-0.3,0.1-0.3,0.3c-95.6,67.7-208.8,138.7-330.6,213.4l-4.8,2.8c-1.6,1.2-1.9,3.5-0.7,5.1
	c1.2,1.5,3.3,1.9,4.9,0.9l4-2.2c103.3-53.9,222-117.9,341.4-183.5c0.6-0.4,1.3-0.8,1.9-1C1664.8,698.5,1659.5,686.5,1655.8,674
	L1655.8,674z M2283.1,166.2C2132.4,0,1163,149.5,750.8,239.5l-9.6,2c-1.9,0.3-3.3,2.2-2.9,4.1c0,0,0,0,0,0.1c0.4,2,2.3,3.3,4.2,2.9
	l9.5-1.9c341.5-60.8,1051.8-145.1,1204.5,6.5c46.7,46.3,35.5,105.7-18.6,176.1c29.1,18.7,49.8,48.2,59.2,85
	C2208.3,374.1,2350.1,240.2,2283.1,166.2L2283.1,166.2z"/>
<g>
	<path class="st0" d="M1716.7,630.3c1.9,58.4,39,106.4,87.1,106.4c93.5,0,133.3-114.8,130.5-191.5c-2-58.6-40-106.4-88.1-106.4
		C1765.9,438.7,1714,553.1,1716.7,630.3z M1667.4,627.2c-3.4-99.8,74.7-201.9,188.3-201.9c75.9,0,125.6,50.6,128.4,128.1
		c3.7,105.2-69.4,201.9-188.2,201.9C1719.8,755.3,1670.1,704.8,1667.4,627.2z M591.8,600.9c-4,1.5-9.2,3-15.8,4.4
		c-6.5,1.5-18.3,3.5-35.5,6.3c-11.9,1.9-20.1,4.3-24.8,7.7c-4.4,3.3-7.1,7.2-7.8,12.1c-0.9,5.2,0.8,9.2,5.2,12.5
		c4.5,3.2,12.1,4.8,22.9,4.8c8.1,0,15.9-1.3,23.5-3.8c7.7-2.5,14.3-5.9,19.2-10.2c3.7-3.2,6.3-7.2,8.3-12.1
		C588.2,619.3,589.9,612.1,591.8,600.9L591.8,600.9z M690.4,539.5c-0.4,9.1-2,17.2-4.4,31.2l-16.7,93.7c-1.4,8.4,1.6,14.8,9.4,19.4
		l-0.5,3.7l-95.6-0.1l-0.9-23.8c-14.4,8.5-29.8,15.1-45.9,19.6c-15.2,3.9-27.4,5.6-45.8,5.6c-30.9,0-48.6-3.2-60.8-13.9
		c-12.4-11-18.5-18.3-17.8-33.5c0.5-8.7,5.1-20,11.5-27.8c6.6-8,15.7-13.2,25.4-17.8c9.9-4.7,21.5-8.1,38.3-10.7
		c16.9-2.8,40.5-5.4,72-8.1c16.6-1.4,26.7-5.2,31.4-7.1c6.6-2.5,9.2-5.4,10.1-10.8c1.8-9.6-1.3-15.2-14.2-17.7
		c-34.4-6.8-99,4.4-132.3,12.6l18.1-48.8c43.9-6.5,85-10.5,128.4-10.5C669.2,494.6,691.2,514.2,690.4,539.5L690.4,539.5z
		 M967.7,687.4l33.1-187.3h91.6l-33.1,187.3L967.7,687.4z M1005.9,456.7c2.8-15.4,27.1-27.8,54.1-27.8c27.2,0,47.1,12.5,44.4,27.8
		c-2.9,15.4-27.1,27.9-54.4,27.9C1022.9,484.6,1003.2,472.1,1005.9,456.7z M1417.5,601.3c-4.2,1.4-9.5,2.9-15.9,4.4
		c-6.5,1.5-18.3,3.4-35.5,6.2c-11.8,1.9-20.1,4.3-24.7,7.7c-4.4,3.2-7,7.2-8,12c-1,5.2,0.9,9.4,5.2,12.5c4.7,3.2,12.3,4.7,23,4.7
		c8,0,15.8-1.1,23.5-3.5c7.8-2.7,14.3-5.9,19.3-10.2c3.5-3.2,6.2-7.3,8.1-12.1C1413.8,619.7,1415.5,612.5,1417.5,601.3L1417.5,601.3
		z M1516.1,539.8c-0.4,9.2-2,17.3-4.5,31.2l-16.6,93.9c-1.4,8.2,1.6,14.8,9.4,19.3l-0.5,3.3l-95.6,0.1l-0.8-23.9
		c-14.3,8.6-29.8,15.2-45.9,19.6c-15.2,4-27.4,5.7-46,5.7c-30.9,0-48.4-3-60.7-13.9c-12.5-11.1-18.5-18.3-17.8-33.5
		c0.4-8.9,4.9-20.1,11.5-27.8c6.6-8.1,15.7-13.2,25.6-17.8c9.9-4.7,21.5-8.1,38.2-10.9c16.9-2.6,40.6-5.4,72.1-8.1
		c16.5-1.4,26.6-5,31.2-7c6.7-2.5,9.2-5.4,10.2-10.9c1.6-9.5-1.3-15-14-17.7c-34.7-6.8-99,4.4-132.3,12.6l18-48.8
		c44-6.5,85-10.5,128.4-10.5C1494.8,494.9,1516.8,514.6,1516.1,539.8L1516.1,539.8z M398.9,620.1c-29.9,5.9-46.5,8.2-76,8.2
		c-43.8,0-78.5-21.8-76.6-61.6c1.4-26.6,32.8-82.5,112.6-82.5c25.2,0,44.8,4.4,71.2,19.5l11.6-65c-35.9-13.5-59.7-15.6-90.6-15.3
		c-104.7,1.1-205.1,48.7-217.7,145.4c-12.6,98.3,107.4,122.9,160.6,122.7c30.7-0.1,62.7-1.4,92.6-4.4L398.9,620.1z M1142.8,499.1
		l6.6-38.2l95.7-20.9l-10.2,58.9h46.9l-8.8,37.7l-45.5-0.1l-27.7,150.6c0,0-92.2-0.6-92.6,0l27.6-150.3h-34.7l7.1-37.9h35.7
		L1142.8,499.1z M1653.7,428.6l-44.5,258.6l-93.2,0.1l46.9-261.3L1653.7,428.6z M846.5,544c-11.7-0.1-23.2,3.8-32.5,10.9
		c-9.6,7.3-15.7,18-18.1,32c-2.9,16.3-1.1,28.1,5.3,35.3c6.6,7.2,15.9,10.9,28.3,10.9c8.3,0,16.9-1.5,23.3-4.7
		c7.8-4.2,13.3-8.5,18-15.4c5.1-7.2,8.3-15.3,10.1-24.7c2.7-14.8,0.4-25.8-6.5-33.1C867.8,547.8,858.5,544,846.5,544L846.5,544z
		 M679.8,752l44.6-250.9h80.4l-6.2,32c7-9.6,18.1-17.5,33.5-23.8c15.6-6.3,33-11,52-11c21,0,33.9,1.1,49.6,9.2
		c15.6,8.2,26.6,20.1,32.4,35.5c6.1,15.2,7.3,32.4,4,51c-5.4,31-20.5,55.3-45.3,73.2c-24.5,18-46.7,22.6-78.2,22.8
		c-11.1,0-20.5-1.1-28.2-3c-7.6-2-13.7-4.4-18.2-7.3c-4.4-2.9-9.1-7.1-15-13.7l-14.9,86L679.8,752z M2341.9,567
		c-0.5-15.1-8.1-25.3-23.7-25.3c-37.6,0-77.5,73.6-84.4,103.2C2295.5,645,2343.4,608.3,2341.9,567L2341.9,567z M2350,682.3l7.2,4.9
		c-18.3,37.3-55.6,67.3-99.4,67.3c-35.8,0-65.3-23.9-66.8-68.7c-2.9-80.3,72.3-154.8,133.9-154.8c26.4,0,51,11.5,52,40
		c2.3,63.9-87.4,83.3-146.4,84.7c-1.9,6.7-2.7,13.4-2.3,23.5c1,26.4,16.9,48.7,50.1,48.7C2306.9,728,2335.4,705,2350,682.3
		L2350,682.3z"/>
	<path class="st0" d="M1982.7,565c6.3-0.9,16.6-2,21-2c6.7,0,13,1.3,13.4,8c0.1,3.9-7,32.4-8.5,39l-14.3,63
		c-5.8,25.8-12,52.7-17.6,74.1h36.7l20.6-99.8c62.9-65.5,87.1-86.9,101.9-86.9c6.7,0,11.3,3.5,11.6,11.5c0.4,11.5-6.8,37.7-9.2,45.3
		l-21,72.7c-4.8,16.3-8.3,31.1-8,41.6c0.6,15.9,10.2,23,24.7,23c26.8,0,46.3-27.9,63.2-55.4l-4.9-9c-6.8,11-22.8,35.2-35.3,35.2
		c-3.9,0-7.7-2.6-7.8-9.2c-0.4-8.5,3.2-21.3,5.7-29.7l23.4-85.2c6.3-23.5,9.2-38.6,9.1-46.7c-0.6-15.9-9.9-23.4-24.2-23.4
		c-24.1,0-56.1,17.7-124.1,95.7h-1l8.6-38.1c4.7-20.9,9.2-42.6,13.5-57.7c-23.5,8.5-57.2,18-77.9,22L1982.7,565z"/>
</g>
</svg>
