<?xml version="1.0" encoding="utf-8"?>
<!-- Generator: Adobe Illustrator 26.4.1, SVG Export Plug-In . SVG Version: 6.00 Build 0)  -->
<svg version="1.1" id="Layer_1" xmlns="http://www.w3.org/2000/svg" xmlns:xlink="http://www.w3.org/1999/xlink" x="0px" y="0px"
	 viewBox="0 0 2500 730" style="enable-background:new 0 0 2500 730;" xml:space="preserve">
<style type="text/css">
	.st0{fill:#373B45;}
</style>
<g>
	<path class="st0" d="M1678.8,717.6h-66c-13.4,0-23.7-7.2-24.7-20.6l-1.1-25.8c-47.5,38.2-104.2,58.8-164.1,58.8
		c-115.5,0-163-73.2-163-184.7V240.2c0-17.5,10.3-23.7,26.8-23.7h72.2c16.5,0,25.8,5.1,25.8,23.7v283.4c0,56.8,14.4,95.9,76.4,95.9
		c39.1,0,88.7-21.6,119.6-49.5V240.2c0-17.5,9.3-23.7,25.8-23.7h73.2c16.5,0,25.8,5.1,25.8,23.7v448.5
		C1705.6,710.4,1699.4,717.6,1678.8,717.6L1678.8,717.6z M0,237.1c0-12.3,6.2-20.6,18.6-20.6h87.3c12.4,0,19.6,7.2,19.6,20.6v454.8
		c0,18.6-8.3,25.8-25.8,25.8H26.8C8.3,717.6,0,710.4,0,691.8V237.1z M1834.7,237.1c0-12.3,6.2-20.6,18.6-20.6h87.3
		c12.4,0,19.6,7.2,19.6,20.6v454.8c0,18.6-8.3,25.8-25.8,25.8h-72.8c-18.5,0-26.8-7.2-26.8-25.8V237.1z M678.4,717.6h-74.3
		c-18.6,0-24.7-9.3-24.7-26.8V410.2c0-56.7-15.4-97-78.4-97c-40.2,0-89.7,21.7-121.7,49.5v329.1c0,17.6-7.2,25.8-24.7,25.8h-75.3
		c-15.5,0-24.8-8.2-24.8-24.7V242.4c0-16.5,7.3-25.8,25.8-25.8h67c14.4,0,23.8,4.1,24.8,19.6l1,27.5
		c47.5-38.1,107.3-59.8,167.2-59.8c115.5,0,163,72.2,163,184.6v302.2C703.2,708.3,697,717.6,678.4,717.6L678.4,717.6z M1046,75.7
		c0-41.8-33.9-75.7-75.6-75.7c-41.8,0-75.7,33.9-75.7,75.7s33.9,75.6,75.7,75.6C1012.2,151.3,1046,117.5,1046,75.7z M1153.7,216.4
		c12.4,0,19.6,4.1,19.6,17.5v72.6c0,12.4-8.2,19.6-20.6,19.6h-119.6v365.6c0,18.6-8.2,25.8-26.8,25.8h-71.8
		c-18.6,0-26.8-7.2-26.8-25.8V326.2H788.1c-12.4,0-20.6-7.2-20.6-19.6V234c0-13.4,7.2-17.5,19.6-17.5L1153.7,216.4z M2326.2,75.7
		c0-41.8-33.9-75.7-75.7-75.7c-41.8,0-75.7,33.9-75.7,75.7s33.9,75.6,75.7,75.6C2292.3,151.3,2326.2,117.5,2326.2,75.7z
		 M2433.8,216.4c12.3,0,19.6,4.1,19.6,17.5v72.6c0,12.4-8.2,19.6-20.6,19.6h-119.6v365.6c0,18.6-8.2,25.8-26.8,25.8h-71.8
		c-18.6,0-26.8-7.2-26.8-25.8l0-365.6h-119.5c-12.4,0-20.7-7.2-20.7-19.6V234c0-13.4,7.2-17.5,19.6-17.5L2433.8,216.4z M2466.5,654
		c18.2,0,33.5,14.4,33.5,33.2c0,19.2-15.3,33.6-33.5,33.6c-18.3,0-33.7-14.4-33.7-33.6C2432.8,668.4,2448.2,654,2466.5,654z
		 M2466.5,715.9c15.5,0,27.4-12.3,27.4-28.7c0-16-12-28.3-27.4-28.3c-15.6,0-27.6,12.4-27.6,28.3
		C2438.9,703.6,2450.9,715.9,2466.5,715.9z M2453.5,667.8h15.1c9.3,0,13.7,3.7,13.7,11.2c0,7-4.4,10-10.3,10.6l11.2,17.3h-6.5
		l-10.6-16.8h-6.4v16.8h-6.1L2453.5,667.8L2453.5,667.8z M2459.5,685.2h6.4c5.4,0,10.3-0.3,10.3-6.4c0-5.2-4.4-6-8.6-6h-8.1
		L2459.5,685.2L2459.5,685.2z"/>
</g>
</svg>
