<?xml version="1.0" encoding="utf-8"?>
<!-- Generator: Adobe Illustrator 26.4.1, SVG Export Plug-In . SVG Version: 6.00 Build 0)  -->
<svg version="1.1" id="Layer_1" xmlns="http://www.w3.org/2000/svg" xmlns:xlink="http://www.w3.org/1999/xlink" x="0px" y="0px"
	 viewBox="0 0 2500 220" style="enable-background:new 0 0 2500 220;" xml:space="preserve">
<style type="text/css">
	.st0{fill:#373B45;}
	.st1{fill-rule:evenodd;clip-rule:evenodd;fill:#373B45;}
</style>
<g>
	<path class="st0" d="M226.3,73.8L293.3,0h-75.9l-54.2,71.7c-5.1,6.2-15.1,10.6-22.6,10.6h-12.7V0H23.5v197.5h104v-60.6H144
		c7.5,0,11.3,2.1,15.4,9.6l29.2,51h125.6l-58.3-99c-4.8-8.2-17.9-15.1-31.6-15.1C220.9,83.4,217.4,83.8,226.3,73.8 M347.8,197.3H446
		V82.7h-98.2L347.8,197.3z M398.5,73.1c27.2-1.9,48.3-16,47.2-31.6c-1.1-15.5-24-26.5-51.1-24.6c-27.2,1.9-48.3,16-47.2,31.5
		C348.5,63.9,371.4,75,398.5,73.1 M484.4,82h33V43.6H610V82h38.4v37.7h-37.1v22.7c0,22.7,26.1,21.3,37.7,11v32.2
		c-35.7,15.8-94.4,19.9-118,3.8c-12.4-8.6-13.7-15.4-13.7-25.7v-43.2h-33 M874.6,88.6c-50.8-25.4-120-20.9-154.1-2.4
		c-54.8,29.7-53.9,78.1-0.7,105.7c38.4,19.9,129.7,14.4,154.4-8.2v-31.9c-36.4,18.5-61.7,15.8-76.9,10.6
		c-23.7-8.1-24.2-41.5,6.2-47.4c19.6-3.8,44.3-3.4,71.1,10.6 M907.6,16.5v180.8h92.3v-55.6c1.4-35,45.3-28.5,45.3-2.7v58.3h91.9V126
		c0-33.7-60.4-71.4-136.5-33l1.3-76.5 M1434.3,82.4v115h98.8v-61.8c0-21.3,44.6-31.6,44.6,0.7v60.4h87.2v-70
		c0-32.8-46.9-75.2-131.8-31.6V82.4 M2016.7,197.2h98.2V82.6h-98.2L2016.7,197.2z M2067.4,72.9c27.1-1.9,48.2-16,47.2-31.5
		c-1.1-15.5-24-26.5-51.1-24.6c-27.1,1.9-48.2,16-47.1,31.5C2017.4,63.8,2040.3,74.9,2067.4,72.9"/>
	<g>
		<path class="st1" d="M2432.2,49.9V37h8.6c4.4,0,9.1,1,9.1,6.1c0,6.4-4.8,6.8-10.1,6.8H2432.2z M2439.9,88.7
			c19.7,0,36.6-15.3,36.6-36.3c0-20.8-16.8-36.1-36.6-36.1c-19.9,0-36.7,15.3-36.7,36.1C2403.2,73.4,2420,88.7,2439.9,88.7
			 M2410.4,52.4c0-17.1,12.9-30.1,29.5-30.1c16.4,0,29.3,12.9,29.3,30.1c0,17.4-12.9,30.2-29.3,30.2
			C2423.4,82.7,2410.4,69.8,2410.4,52.4 M2432.2,55.3h7.3l11,18.1h7.1L2445.7,55c6.1-0.8,10.8-4,10.8-11.5c0-8.2-4.9-11.8-14.7-11.8
			h-15.9v41.7h6.3 M1275.5,123.9h36.7c0.6-11.7-9.3-17.5-19.8-17.5C1283.7,106.4,1275.5,114,1275.5,123.9 M1400.7,153.4
			c-62.5-4.8-129.1-0.7-129.1-0.7c19.2,31.6,97.5,26.8,123.5,6.2l-2.7,26.8c-52.2,30.9-211.4,29.5-214.1-42.5
			c-2.4-63.6,92-72.8,112.6-72.8C1339.6,70.4,1411,93,1400.7,153.4 M1779.6,118.4l28.8-53.5l23.3,53.5H1779.6z M1686.6,196.8h53.5
			l23-44.1h83.7l19.9,44.1h126.9L1894.8,0.4h-126.3c12.4,4.8,15.8,13,12.4,19.9 M2290.8,124.2c-16.5-12.3-48.2-9.2-48.2,10.4
			c0,28.2,37.7,23.3,48.2,14.7V124.2z M2383.6,16.8v179.9h-92.6v-12.4c-46,35.7-149,16.5-149-41.2c0-70.7,111.9-80.3,149.6-55.6
			V16.8"/>
	</g>
</g>
</svg>
