<?xml version="1.0" encoding="utf-8"?>
<!-- Generator: Adobe Illustrator 26.4.1, SVG Export Plug-In . SVG Version: 6.00 Build 0)  -->
<svg version="1.1" id="Layer_1" xmlns="http://www.w3.org/2000/svg" xmlns:xlink="http://www.w3.org/1999/xlink" x="0px" y="0px"
	 viewBox="0 0 2426.5 422.1" style="enable-background:new 0 0 2426.5 422.1;" xml:space="preserve">
<style type="text/css">
	.st0{fill-rule:evenodd;clip-rule:evenodd;fill:#373B45;}
</style>
<g>
	<path class="st0" d="M854.9,413.6c13.7,3.6,30.4,6.2,44.8,6.2c14.7,0,31.6-2.6,45.8-6.6c42.8-12,78.7-46.5,93.9-89.9
		c7.3-20.1,12.5-42.8,12.5-64.2c0-21.3-5.2-44.3-12.1-63.6c-15.6-42-51.1-77-93.4-89.4c-13.5-3.6-31.6-6.1-46-6.1
		c-15.5,0.2-30.9,2.4-45.8,6.6c-42.2,12-78.2,47.7-93.7,90.2c-6.8,19.4-11.6,42.8-11.6,65c0,21,4.8,45.3,11.9,67.1h-131
		c-29.1,0-52.7-25.5-52.7-55.5L577.1,0.2h-80.6v272.9c0,76.5,60.3,138.8,134.2,138.8h148.2v-53.1
		C797.6,384.6,825.2,405.6,854.9,413.6z M829.1,293.7c-0.7-9.5-2.8-21.9-2.8-32.1c0-11.1,1.6-25.5,3.2-35.3c1-8.7,5.4-18.9,8.6-26.4
		c10.3-24.8,35.5-40.4,62-40.4c26.3,0,51.8,15.6,62.6,40.4c3.6,7.8,7.3,18.6,8.4,26.7c1.6,9,3.6,22.2,3.6,32.4
		c0,10.4-2.8,24.3-4.1,34.2c-0.7,8.7-5.1,18.9-8.3,26c-11.2,25.1-35.7,42-62.7,42c-26.3,0-51.2-17-61.6-41.6
		C835,312.1,829.9,301.9,829.1,293.7L829.1,293.7z M1342.2,348.7c-20.7,44.9-65.1,73.4-113.4,73.4c-29.1,0-60-12.5-82.1-32.3v21.9
		h-74.8V0h76v130.2c22.5-19.5,51.2-30.3,80.9-30.5c19.2,0,40.3,5.3,56.8,13.5c26.3,14,48.7,41.3,60.7,70.4
		c8.7,23.6,14.7,51,14.7,77.3C1361,290.2,1354.3,322.3,1342.2,348.7L1342.2,348.7z M1149.8,217.4c1.5-6.9,6.3-14.4,9.9-20.6
		c11.9-19.4,32.7-32.1,55.2-32.1c12.8,0,26.8,4.2,36.7,11.6c15.6,12.3,28.1,33,30.4,53.9c1.2,8.5,2.3,21,2.3,30.5
		c0,8.5-1.6,18.9-2.3,27.2c-1.2,13.5-8,27.9-14.9,39.5c-11.1,18.1-31.9,30.2-53.4,30.2c-26.5,0-50.8-17.4-59.5-42.9
		c-5.5-16.5-9.5-37.8-9.5-56C1144.7,245.3,1147,229.3,1149.8,217.4L1149.8,217.4z M1457.7,411.9h-77V0.2h77V411.9L1457.7,411.9z
		 M1674.3,317.5c1.2-12.3,3-28.4,3-41.1c0-6.6-1.2-14-1.2-20.1c-6.5,3.6-15.9,7.8-23.7,9.5l-47.6,11.6c-8,1.6-16.4,5.2-24,8.5
		c-8.3,3.7-17.2,9.9-22.3,17c-4.5,5.2-6.4,12.7-6.4,19.5c0,3,0.7,6.6,1.6,9.2c4.8,11.8,15.1,23.1,27.1,27.2c8.1,2.6,16.6,3.9,25.2,4
		c19.2,0,38.4-7.4,53.6-19.4C1667.2,337.2,1673.6,327.3,1674.3,317.5L1674.3,317.5z M1749,369.7c0,15.3,3.5,30,9.9,42h-74.7
		c-1.7-9-3.1-18.1-4.4-27.2c-24.6,21.8-56.6,34.2-89.4,34.2c-29.1,0-59.5-10.8-82.2-28.8c-16.4-12.9-28.4-33-30.9-54.5
		c0-1.9-0.3-5.2-0.3-7.3c0-28.4,14-55.1,36.7-70.7c14.4-10.4,33.9-19.4,52-23.1c19.2-5.4,43.5-8.3,61.8-10.7
		c6.4-1.3,17.2-3.7,24-4.2c13.2-1.7,23-13.2,23-26.7c0-4.2-0.6-8.3-2.2-12c-3.6-7.8-10.8-14.9-18.8-18c-10.4-5.4-21.9-8.3-33.6-8.2
		c-9.9,0-20.4,1.9-30,6.1c-15.1,6.1-25.5,21-26.8,37.8h-66.7c1.2-14.9,5.7-32.1,11.6-45.3c5.3-11,13.3-20.6,23.2-27.9
		c8-5.8,18.3-12,27.5-14.9c19.6-6.6,41.9-10.7,62.7-10.7c24.7,0,52,5.3,73.4,14c18,8.2,34,22.2,43.5,39.5
		c6.4,14.4,10.8,35.9,10.8,52.4L1749,369.7L1749,369.7z M1832.2,411.9l-89.1-302.7h75.8l54,192.4l48.2-192.4h69.6l55,194.5
		l48.3-194.5h76.7l-86.6,302.7h-70.7L1958,207.7l-54.7,204.2L1832.2,411.9L1832.2,411.9z M2318.9,163.3c14.9,5,26,19.4,27.2,35.4
		h69.1c-0.4-33.8-19.6-65.9-48.7-80.3c-43.1-20.6-83.6-22.7-128.7-9c-45.5,14-67.8,42.3-67.8,87.2c0,22.4,9.9,45,25.9,59.4
		c18,16,45.1,24.3,68,28.8l61.4,12.3c24.9,4.5,39.6,31.5,18.1,51.8c-20.4,18.9-50.4,17.2-74.4,7.8c-18.8-7.4-32.3-26.4-33.9-47.3
		h-69.4c0.7,18.5,5.5,37.8,14.7,53.1c10.3,17.2,27.5,33.8,45.5,42c44.4,19.7,85.1,20.9,130.6,8.1c44-12.7,70-46.5,70-92.1
		c0-32.9-12.8-60-40.8-75.6c-15.6-8.1-32.3-13.9-49.6-17l-75.4-14c-22-3.3-30.9-26-15.3-42C2266.2,153.1,2293.9,156.2,2318.9,163.3z
		"/>
	<path class="st0" d="M199.7,0.1H0V206c0,113.4,92.6,206,205.9,206h205.9l0.3-200.2L278.7,212c-43.4-0.1-78.9-35.4-78.9-78.9V0.1z"
		/>
	<path class="st0" d="M272.7,0.1H212v133.1c0,36.6,30,66.3,66.6,66.5h133.1v-60.8l-84.3,0.2c-30.2-0.2-54.8-24.6-54.8-54.6
		L272.7,0.1L272.7,0.1L272.7,0.1z M339.3,0.1H285v84.5c0,23.3,19.1,42,42.3,42.2h84.5V73.1h-39.9c-17.7,0-32.1-14.6-32.4-32.6
		L339.3,0.1L339.3,0.1z M411.8,0.1h-60l0.2,40.4c0.1,11.3,9,20.3,19.8,20.3h40.1L411.8,0.1L411.8,0.1z"/>
</g>
</svg>
