<?xml version="1.0" encoding="utf-8"?>
<!-- Generator: Adobe Illustrator 26.4.1, SVG Export Plug-In . SVG Version: 6.00 Build 0)  -->
<svg version="1.1" id="Layer_1" xmlns="http://www.w3.org/2000/svg" xmlns:xlink="http://www.w3.org/1999/xlink" x="0px" y="0px"
	 viewBox="0 0 2426.5 587.9" style="enable-background:new 0 0 2426.5 587.9;" xml:space="preserve">
<style type="text/css">
	.st0{fill-rule:evenodd;clip-rule:evenodd;fill:#FFFFFF;}
	.st1{fill-rule:evenodd;clip-rule:evenodd;fill:#373B45;}
</style>
<g>
	<path class="st0" d="M685.4,493.7c0,52-42.2,94.2-94.2,94.2H97.5C42.2,587.9,0,545.7,0,493.7V94.2C0,42.2,42.2,0,97.5,0h493.7
		c52,0,94.2,42.2,94.2,94.2V493.7z"/>
	<path class="st1" d="M2423.2,175.4v78c0,3.2-6.5,3.2-9.7,0c-13-19.5-6.5-45.5-29.2-58.5c-29.2-16.2-74.7-16.2-100.7,6.5
		c-45.5,39-48.7,107.2-35.7,165.7c6.5,29.2,29.2,61.7,61.7,68.2c16.3,3.2,32.5,6.5,45.5-3.3c6.5-26,3.2-55.2,3.2-81.2
		c0-9.8-6.5-19.5-16.2-22.7c-9.8-3.2-22.7,3.2-32.5-6.5c-3.2-9.8,3.3-13,9.8-13h107.2v133.2c-16.2,13-39,13-58.5,16.2
		c-58.5,0-123.4,3.3-165.7-42.2c-35.7-42.2-42.2-107.2-26-159.2c26-65,90.9-94.2,159.2-91C2368,165.6,2394,168.9,2423.2,175.4
		L2423.2,175.4z M1568.9,172.1c3.2,3.3,0,6.5-3.2,9.8c-3.3,3.2-16.3,3.2-16.3,13c13,35.7,32.5,65,48.7,97.5
		c0,0,45.5-84.5,71.5-120.2h230.6l29.2,58.5c0,3.2,0,9.7-6.5,9.7c-9.8,0-16.2-22.7-22.7-29.2c-19.5-26-52-26-81.2-22.7v220.9
		c0,9.7,0,16.2,9.7,22.7c9.8,3.3,22.7,6.5,29.2,9.8c3.3,6.5,0,13-6.5,13h-136.4c-3.2-3.2-3.2-9.8,0-13c9.8-6.5,29.2,0,35.7-16.2
		c6.5-9.8,6.5-19.5,6.5-19.5V191.6c-19.5-9.7-39-3.2-55.2-3.2c-39,26-58.5,81.2-81.2,126.7c-3.3,35.7-6.5,78,0,113.7
		c6.5,13,39,3.2,29.2,26h-139.7c-3.3,0-3.3-6.5-3.3-6.5c6.5-19.5,32.5-3.3,39-22.7c3.2-29.2,3.2-55.2,0-84.5l-65-133.2
		c-6.5-16.2-22.7-19.5-39-26c-3.2-6.5,0-9.8,6.5-9.8L1568.9,172.1L1568.9,172.1L1568.9,172.1z"/>
	<path class="st1" d="M763.4,587.9c-29.2,0-55.2-22.7-55.2-55.2c0-32.5,26-55.2,55.2-55.2c29.2,0,55.2,22.7,55.2,55.2
		C818.6,565.2,792.6,587.9,763.4,587.9L763.4,587.9z M717.9,532.7c0,26,19.5,45.5,45.5,45.5c26,0,45.5-19.5,45.5-45.5
		c0-26-19.5-45.5-45.5-45.5C737.4,487.2,717.9,506.7,717.9,532.7L717.9,532.7z"/>
	<path class="st1" d="M750.4,536h13l16.2,29.2h9.7L773.1,536c9.7,0,16.2-6.5,16.2-16.2c0-13-9.7-19.5-22.7-19.5h-22.7v65h6.5V536
		L750.4,536z M750.4,529.5V510h13c6.5,0,16.2,0,16.2,9.8c0,9.7-9.7,9.7-16.2,9.7H750.4z"/>
	<path class="st1" d="M1338.3,331.3h-74.7c0,0,22.7-77.9,35.7-116.9L1338.3,331.3L1338.3,331.3z M883.6,172.1L981,341.1l94.2-168.9
		h94.2c3.3,19.5-26,13-29.2,29.2c0,65,0,146.2,3.3,211.1c0,9.8,6.5,26,22.7,26c13,0,29.2-3.2,35.7-16.2c26-71.5,52-139.7,74.7-211.1
		c3.2-9.7-3.2-26-13-26c-16.2,0-13-13-13-13h107.2c0,0,55.2,172.2,87.7,253.4c6.5,19.5,35.7,3.2,32.5,29.2h-133.2
		c-3.2-3.2-3.2-6.5-3.2-13c6.5-9.8,26,0,29.2-16.2c-6.5-22.7-22.7-71.5-22.7-71.5h-90.9l-22.7,71.5c-3.2,16.2,35.7,9.8,32.5,29.2
		h-224.1c-6.5-3.2-6.5-6.5-3.2-13c9.7-6.5,22.7,0,29.2-13c0,0,6.5-6.5,6.5-22.7c0-55.2,3.2-117-3.2-175.4L968,438.5
		c-6.5,3.2-13,3.2-22.7,0c-29.2-68.2-65-133.2-100.7-201.4c-9.7,58.5-9.7,120.2-9.7,178.6c0,22.7,22.7,19.5,35.7,26
		c6.5,0,3.2,9.8,3.2,13H769.9v-13c16.2-3.2,29.2-9.8,32.5-22.7c6.5-65,13-133.2,16.2-198.1c0-13-3.2-29.2-16.2-32.5
		c-6.5-3.2-22.7-3.2-19.5-13l3.2-3.3H883.6L883.6,172.1z M2052.9,331.3h-74.7l35.7-116.9L2052.9,331.3z M2156.9,419
		c6.5,26,42.2,9.8,35.7,35.7h-133.2c-3.3-3.2-6.5-6.5-3.3-13c6.5-9.8,32.5-3.2,29.3-16.2l-22.7-71.5h-91l-22.7,71.5
		c-3.2,19.5,35.7,3.2,29.2,29.2h-100.7c-3.2-3.2-3.2-9.8,0-13c13-3.2,35.7-3.2,42.2-22.7l71.5-204.6c0-9.7,3.2-16.2-3.2-22.7
		c-6.5-9.7-22.7-9.7-22.7-19.5h107.2L2156.9,419L2156.9,419z"/>
	<path class="st1" d="M0,185.1c0,0,0-32.5,39-32.5c42.2,0,61.7,48.7,61.7,48.7l90.9,211.1c0,0,9.7,22.7,26,32.5
		c16.2,9.8,45.5,9.8,45.5,9.8h58.5c0,0-9.7-9.8-19.5-22.7c-9.7-13-16.2-26-16.2-26l-97.5-227.4c0,0-13-26-32.5-35.7
		c-16.2-9.7-39-9.7-39-9.7H58.5c0,0-32.5,0-42.2-6.5C0,116.9,0,94.2,0,94.2C0,42.2,42.2,0,97.5,0h493.7c52,0,94.2,42.2,94.2,94.2
		v315.1c0,0,0,26-35.7,26c-45.5,0-58.5-35.7-58.5-35.7L497,178.6c0,0-13-26-32.5-35.7c-19.5-9.7-42.2-9.7-42.2-9.7h-55.2
		c0,0,13,16.2,22.7,26c6.5,9.7,13,29.2,13,29.2L497,412.5c0,0,13,22.7,29.2,32.5c16.2,9.8,45.5,9.8,45.5,9.8h58.5c0,0,26-3.2,39,6.5
		c19.5,13,16.3,32.5,16.3,32.5c0,52-42.2,94.2-94.2,94.2H97.5C42.2,587.9,0,545.7,0,493.7C0,493.7,0,185.1,0,185.1z"/>
	<path class="st0" d="M214.4,133.2h58.5c0,0,22.7,0,42.2,9.7c16.2,9.7,29.2,35.7,29.2,35.7L441.8,406c0,0,6.5,13,16.2,26
		c9.8,13,19.5,22.7,19.5,22.7H419c0,0-29.2,0-45.5-9.8c-16.2-9.7-26-32.5-26-32.5l-94.2-224.1c0,0-6.5-19.5-16.2-29.2
		C230.6,149.4,214.4,133.2,214.4,133.2z"/>
</g>
</svg>
