<?xml version="1.0" encoding="utf-8"?>
<!-- Generator: Adobe Illustrator 26.4.1, SVG Export Plug-In . SVG Version: 6.00 Build 0)  -->
<svg version="1.1" id="Layer_1" xmlns="http://www.w3.org/2000/svg" xmlns:xlink="http://www.w3.org/1999/xlink" x="0px" y="0px"
	 viewBox="0 0 2279.4 627.6" style="enable-background:new 0 0 2279.4 627.6;" xml:space="preserve">
<style type="text/css">
	.st0{fill-rule:evenodd;clip-rule:evenodd;fill:#373B45;}
	.st1{fill-rule:evenodd;clip-rule:evenodd;fill:#FFFFFF;}
</style>
<g>
	<path class="st0" d="M688.8,507.6c0-12.1,11.5-7.4,11.5-12.1c0-2-4.7-1.3-5.4-1.3c-5.4,0-10.8,0.7-16.2,0.7
		c-4.7,0-8.8-0.7-13.5-0.7c-0.7,0-3.4,0-3.4,1.3c0,5.4,13.5,1.3,13.5,11.5v57.3c0,26.3,8.8,51.9,53.2,51.9
		c49.9,0,47.9-42.5,47.9-50.5v-53.3c0-15.5,10.1-12.1,10.1-16.8c0-0.7-1.3-1.3-2-1.3c-3.4,0-6.8,0.7-9.4,0.7
		c-6.7,0-13.5-0.7-20.2-0.7c-0.7,0-2,0.7-2,1.3c0,6.7,16.2-0.7,16.2,16.8v55.3c0,20.2-7.4,41.1-39.1,41.1
		c-23.6,0-41.1-12.1-41.1-39.8L688.8,507.6L688.8,507.6z M876.2,590.5c0,23.6-14.8,16.2-14.8,22.2c0,0.7,0,2,2,2
		c1.3,0,10.1-0.7,16.2-0.7c8.1,0,13.5,0.7,17.5,0.7c1.3,0,1.3-1.3,1.3-2.7c0-4-14.8,1.3-14.8-13.5v-70.1c0-3.4,0.7-4,1.3-4
		c1.3,0,3.4,3.4,3.4,3.4l73.5,82.9c3.4,4,5.4,4.7,6.7,4.7s1.3-2.7,1.3-7.4v-99.1c0-12.1,10.1-9.4,10.1-13.5c0-1.3-0.7-1.3-2-1.3
		c-4,0-11.5,0.7-16.8,0.7s-10.8-0.7-15.5-0.7c-1.3,0-2,0-2,1.3c0,5.4,18.9-0.7,18.9,21.6v71.4c0,1.4,0,2-0.7,2l-2-2l-81.6-91
		c-0.7-0.7-2-3.4-4-3.4c-2.7,0-5.4,0.7-8.1,0.7c-2.7,0-5.4-0.7-8.1-0.7c-0.7,0-2,0.7-2,1.3c0,6.1,20.2-3.4,20.2,31.7L876.2,590.5
		L876.2,590.5L876.2,590.5z M1074.4,595.9c0,16.8-13.5,11.5-13.5,16.2c0,1.3,0.7,2.7,4,2.7c2,0,5.4-0.7,16.2-0.7
		c7.4,0,14.8,0.7,18.2,0.7c3.4,0,4-0.7,4-2c0-4.7-15.5-1.3-15.5-12.8v-91.7c0-12.8,12.1-8.8,12.1-12.8c0-1.3-0.7-1.3-3.4-1.3
		c-4.7,0-10.1,0.7-15.5,0.7c-6.1,0-12.8-0.7-18.9-0.7c-1.3,0-1.3,0-1.3,1.3c0,4,13.5,0.7,13.5,12.8L1074.4,595.9L1074.4,595.9
		L1074.4,595.9z M1230.8,606.7c1.3,3.4,3.4,10.8,6.1,10.8c2.7,0,4-6.1,6.1-10.1l42.5-100.4c4.7-11.5,9.5-7.4,9.5-10.8
		c0-1.3-1.3-2-2.7-2c-2.7,0-5.4,0.7-13.5,0.7c-3.4,0-7.4-0.7-11.5-0.7c-1.3,0-2,0-2,2c0,4,10.8,0.7,10.8,8.1c0.7,4-1.3,9.5-2.7,12.1
		l-29.7,72.8c-0.7,2-1.3,4.7-2.7,4.7c-2,0-3.4-3.4-6.7-12.8l-30.3-70.1c-0.9-2.1-1.4-4.4-1.3-6.7c0-6.1,7.4-6.1,6.7-8.8
		c0-0.7-1.3-1.3-2-1.3c-2.7,0-8.8,0.7-13.5,0.7c-5.4,0-10.8-0.7-15.5-0.7c-2,0-2.7,0.7-2.7,2c0,4,8.8,0.7,13.5,10.8L1230.8,606.7
		L1230.8,606.7z M1392.6,511.6c0-11.5-0.7-10.8,16.2-10.8c6.7,0,24.3-0.7,29,4.7c2.7,4,0,12.1,4,12.1c0.7,0,3.4-1.3,3.4-20.2
		c0-2-0.7-3.4-2-3.4c-4.7,0-20.9,0.7-24.3,0.7c-6.7,0-16.2-0.7-47.8-0.7c-5.4,0-6.1,0.7-6.1,2c0,2,3.4,2,4.7,2.7
		c9.4,1.3,9.4,9.5,9.4,16.8v78.2c0,7.4-0.7,12.8-4.7,14.9c-5.4,2.7-7.4,2-7.4,4c0,1.4,0.7,2,2.7,2c6.7,0,13.5-0.7,20.2-0.7
		c13.5-0.7,26.3,0.7,39.1,0.7c7.4,0,11.5,0,16.9-6.1c4-4,8.8-10.1,8.8-16.2c0-0.7-0.7-2-1.4-2c-2.7,0-8.1,17.5-47.8,17.5
		c-14.2,0-12.8-4-12.8-14.2v-31.7c0-2.7-0.7-5.4,3.4-5.4h25c14.2,0,8.8,14.8,13.5,14.8c1.3,0,2-0.7,2-2v-13.5v-17.5
		c0-1.3-0.7-2.7-2-2.7c-4,0,0.7,13.5-16.8,13.5h-18.2c-7.4,0-6.7,0-6.7-6.1L1392.6,511.6L1392.6,511.6L1392.6,511.6z M1584,552.8
		c12.1-4.7,21.6-16.2,21.6-29.7c0-33-37.7-29-40.4-29c-8.8,0-18.9,0.7-28.3,0.7c-8.8,0-8.1-0.7-10.8-0.7c-2,0-3.4,0.7-3.4,2
		c0,5.4,14.2-1.3,14.2,14.8v87c0,12.8-12.1,10.8-12.1,14.8c0,0.7,0.7,2,1.3,2c6.7,0,13.5-0.7,19.6-0.7c14.2,0,18.2,0.7,19.6,0.7
		c1.3,0,3.4,0,3.4-1.3c0-6.1-18.2-0.7-18.2-15.5v-35.7c0-2-0.7-4.7,4.7-4.7c18.9,0,16.2-0.7,22.9,8.8l18.9,29.7
		c6.1,10.1,12.8,18.9,25.6,18.9c1.3,0,10.8,0,10.8-2c0-4-8.1,2-20.9-16.8L1584,552.8L1584,552.8z M1550.3,505.6
		c0-6.7,4-6.1,10.1-6.1c16.9,0,32.4,6.7,32.4,27.6c0,21.6-16.2,24.3-23.6,24.3c-8.1,0-18.9,0.7-18.9-2V505.6z M1708,606.7
		c0.7,2.7,16.2,9.4,29,9.4c38.4,0,48.5-21.6,48.5-36.4c0-46.5-68.8-28.3-68.8-60c0-16.2,14.2-22.2,27.6-22.2
		c14.9,0,27.6,7.4,32.4,22.2c0.7,1.3,2,4.7,3.3,4.7c2,0,2-0.7,2-2l-2.7-23.6c0-2-0.7-2-2-2s-2,1.4-3.4,1.4c-2,0-8.1-6.1-28.3-6.1
		c-20.2,0-38.4,10.8-38.4,32.3c0,44.5,69.4,26.3,69.4,58.7c0,18.2-15.5,27-31.7,27c-23.6,0-34.4-17.5-36.4-25.6
		c-0.7-3.4-0.7-5.4-2.7-5.4c-2,0-2.7,2-2,5.4L1708,606.7L1708,606.7z M1877.9,595.9c0,16.8-13.5,11.5-13.5,16.2
		c0,1.3,0.7,2.7,3.4,2.7c2.7,0,6.1-0.7,16.8-0.7c6.7,0,14.2,0.7,18.2,0.7c2.7,0,3.4-0.7,3.4-2c0-4.7-14.9-1.3-14.9-12.8v-91.7
		c0-12.8,12.1-8.8,12.1-12.8c0-1.3-0.7-1.3-3.4-1.3c-5.4,0-10.8,0.7-15.5,0.7c-6.7,0-12.8-0.7-18.9-0.7c-1.3,0-2,0-2,1.3
		c0,4,13.5,0.7,14.2,12.8L1877.9,595.9L1877.9,595.9L1877.9,595.9z M2027.6,599.9c0,10.1-13.5,8.1-13.5,12.1c0,2,0,2.7,2,2.7
		c0.7,0,4-0.7,22.9-0.7c5.4,0,10.1,0.7,14.2,0.7c1.3,0,1.3-2,1.3-2c0-5.4-13.5,0-13.5-14.1v-87c0-9.5-1.3-8.8,6.7-8.8h24.3
		c17.5,0,8.1,13.5,14.2,13.5c2.7,0,2-2,2-4l-0.7-13.5c0-4-1.3-4.7-4.7-4.7s-19.6,0.7-50.6,0.7c-21.6,0-35.1-0.7-47.8-0.7
		c-3.4,0-3.4,4-3.4,6.1l-2,16.9c0,0.7,0.7,2,2,2c2,0,2-2,2.7-4c3.4-9.5,3.4-12.1,14.2-12.1h27.6c2.7,0.7,2,6.7,2,8.1L2027.6,599.9
		L2027.6,599.9L2027.6,599.9z M2198.1,550.1c1.3,2,3.4,5.4,3.4,8.8V600c0,12.1-12.8,8.1-12.8,12.8c0,2,0.7,2,2.7,2
		c1.3,0,7.4-0.7,15.5-0.7c6.1,0,16.2,0.7,18.2,0.7c2.7,0,4,0,4-2c0-5.4-14.2-0.7-14.2-15.5v-41.8c0-2,1.4-3.4,4.7-7.4l23.6-37.1
		c2.7-4,4.7-9.4,9.5-12.1c1.3-0.7,4-1.3,4-2.7s-0.7-2-2-2c-4.7,0-9.5,0.7-14.9,0.7c-4,0-8.1-0.7-12.1-0.7c-2,0-3.4,0-3.4,2
		c0,4,12.8,0.7,12.8,9.4c0,4-2.7,7.4-4,8.8l-17.5,29c-1.3,2-2,3.4-3.4,3.4c-0.7,0-2-1.4-3.4-3.4l-20.2-33c-1.4-1.4-3.4-4-3.4-6.8
		c0-4.7,8.1-5.4,8.1-8.1c0-1.3-2-1.3-3.4-1.3c-1.3,0-6.1,0.7-11.5,0.7c-12.1,0-14.8-0.7-19.5-0.7c-1.3,0-2.7,1.3-2.7,2
		c0,3.4,8.8,1.3,12.8,8.1L2198.1,550.1L2198.1,550.1z M1877.2,36.4c16.9,0,31,14.2,31,31c0,17.5-14.2,31.7-31,31.7
		c-17.5,0-31-14.2-31-31.7c0-17.1,13.8-31,30.9-31C1877.1,36.4,1877.2,36.4,1877.2,36.4z M2173.8,368.7
		c-1.3,13.5-8.1,22.2-33.7,29.7c-20.2,6.7-17.5,17.5,2.7,18.2c55.3-8.1,72.8-6.7,122.7-1.4c19.6,0,16.2-12.8,4-18.2
		c-29-11.5-33.7-11.5-39.8-40.5l-2-291.2c0-16.8,6.1-36.4-11.5-31.7c-33,12.8-35.7,14.2-66.1,24.9c-16.2,6.7-10.1,14.2,1.3,18.2
		c16.2,6.7,17.5,16.2,18.9,28.3L2173.8,368.7L2173.8,368.7z M2003.3,366.7c-1.4,14.1-8.1,22.9-33.7,30.3
		c-20.2,6.1-18.2,16.8,2.7,18.2c55.3-8.1,72.8-6.7,122.7-1.3c18.9-0.7,16.2-12.8,4-18.9c-29.6-11.5-33.7-11.5-39.8-40.5l-2-290.5
		c0-16.8,6.1-36.4-11.5-32.4c-33.7,13.5-36.4,14.8-66.1,24.9c-16.2,6.7-10.1,14.8,1.3,18.2c16.2,6.7,17.5,16.8,18.2,28.3
		L2003.3,366.7L2003.3,366.7z M1847.6,252.1c-1.4-14.8-3.4-26.3-20.2-31c-12.1-1.3-18.2-12.1-0.7-18.9c34.4-10.8,39.1-12.8,66-34.4
		c8.1-4.7,17.5-0.7,12.8,14.2c-1.3,10.8-1.3,16.2-2,28.3V362c1.4,25,20.9,29,33,33.7c12.1,4.7,13.5,19.5-1.3,19.5
		c-53.2-7.4-65.4-8.1-117.3,2.7c-17.5,0-20.9-13.5,0.7-20.9c20.9-7.4,28.3-11.5,29-29.7L1847.6,252.1L1847.6,252.1L1847.6,252.1z
		 M1371,224.5c12.1-129.4,95-183.4,211.7-192.8c123.3,0.7,140.9,8.8,138.8,77.5c0.7,24.9-15.5,30.3-27,2.7
		c-13.5-25.6-24.3-40.4-55.3-53.2c-106.5-23.6-184.7,44.5-189.4,160.4c-7.4,163.1,175.3,211,213,149.6c8.1-15.5,8.1-58,7.4-93
		c-6.7-22.9-29-20.2-49.9-21.6c-23.6,2-31.7-24.3-0.7-24.3c30.3,0,87.6,3.4,161.8-4c22.2,1.3,23.6,20.9-3.4,24.3
		c-11.5,2-35.7,2-39.1,20.9c-2.7,99.8,20.2,109.2-54.6,136.2c-95.7,22.2-198.9,12.1-256.8-43.8C1401.3,339.7,1369,287.2,1371,224.5
		L1371,224.5z M1124.3,290.5c10.8-107.2,99.8-132.8,145.6-132.8c54.6,1.3,72.1,19.6,72.8,37.8c0,18.2-12.8,27.6-27,23.6
		c-29.7-7.4-23.6-39.1-63.4-41.8c-45.1,6.7-72.8,57.3-64.7,118c7.4,60,66.1,105.2,137.5,68.1c17.5-3.4,18.9,10.8,4.7,20.2
		C1198.4,464.4,1118.9,349.8,1124.3,290.5L1124.3,290.5z M719.1,109.9c-2.7-36.4-14.2-25.6-42.5-36.4c-22.9-4.7-24.9-20.9-2-22.2
		c40.5,3.4,60.7,4,94.4-1.3c15.5,2.7,22.2,8.8,27.6,23.6c28.3,60,69.4,149.7,97.7,209.6c5.4,10.8,8.1,12.8,14.2-1.3l83.6-213
		c9.4-18.2,19.5-22.2,48.5-19.5c50.5,0.7,62.7-0.7,87.6-3.4c20.9,0.7,19.6,16.8-1.3,22.9c-32.4,0-49.2,11.5-54.6,35.7l4.7,244.7
		c5.4,36.4,24.3,37.7,58.6,46.5c14.8,6.7,11.5,17.5-1.3,20.9c-71.5-8.1-95.7-7.4-166.5-0.7c-20.2,2-21.6-15.5,0.7-20.2
		c25.6-6.1,32.4-10.8,38.4-24.3l-5.4-235.9c-0.7-9.4-6.7-9.4-10.1,1.3l-99.8,248.7c-9.4,21.6-13.5,21.6-23.6,4.7l-118-254.8
		c-3.4-8.8-8.1-6.1-8.1-0.7l0.7,225.1c3.4,26.3,21.6,27.6,58.6,39.1c10.1,3.4,10.8,12.1,2,17.5c-71.5-6.1-83.6-6.1-149.7,2.7
		c-10.8,0-15.5-15.5,0.7-17.5c35.1-10.1,45.2-10.8,49.9-31L719.1,109.9L719.1,109.9z"/>
	<path class="st1" d="M13.4,288.5c-22.9-80.2-9.4-155-9.4-244.7C84.2,3.4,164.4,0,250.7,0c74.8,0,180.7,9.4,244,43.8
		c6.7,84.3,10.8,159.1-11.5,255.5c-21.6,96.4-84.9,229.9-229.9,328.3C95.6,523.8,44.4,399.1,13.4,288.5L13.4,288.5z"/>
	<path class="st0" d="M20.1,289.2c-21.6-77.5-8.8-149.6-8.8-237.3C89.5,13.5,166.4,9.4,250,9.4c72.8,0,175.3,9.4,237.3,42.5
		c6.1,82.2,9.4,154.4-11.5,248.1c-20.9,93-82.2,222.5-222.4,317.5C100.3,517.7,50.5,396.4,20.1,289.2z"/>
	<path class="st1" d="M93.6,175.3l-74.8,81.6c16.9,78.9,63.4,243.3,234.6,354.6C422.5,494.8,467.7,335,477.8,255.5L405,174.6
		l-81.6,82.2l-74.1-81.6l-74.8,80.9L93.6,175.3z M128,92.3c-0.7,0-2.7-1.3,0-2c2,0,5.4,0,10.1,5.4c1.3-0.7,6.1-7.4,10.1-5.4
		c0,0.7-14.8,33.7-16.2,36.4c-6.7-3.4-45.2-6.1-41.1-6.1c3.4,0-35.1,1.3-40.5,6.1c-2-3.4-16.8-37.1-16.8-37.1
		c4.7-2,9.4,4.7,10.8,5.4c4-5.4,8.1-5.4,8.8-5.4c4,0.7,1.3,1.3,1.3,2.7c-18.9,14.8,8.1,31.7,14.2,14.8c23.6,2.7,16.8-16.8,11.5-19.5
		c-4.7-0.7-2-2,0-2c1.3-0.7,4.7-0.7,4.7,1.3c0-10.8,0.7-17.5,6.1-20.9c6.1,4,6.7,10.1,6.1,20.9c0.7-2,3.4-1.3,5.4-1.3
		c0.7,1.3,4.7,1.3,0.7,2.7c-6.1,2-12.1,22.2,11.5,18.9C119.9,124,148.2,105.2,128,92.3L128,92.3z M112.5,111.9l6.7,8.1l-13.5-2
		L112.5,111.9z M90.9,102.5l8.8,15.5H82.8L90.9,102.5z M70,111.9l-6.7,8.1l13.5-2L70,111.9z"/>
	<path class="st1" d="M59.9,144.9c-2.7-4-5.4-12.1-7.4-14.2c6.7-5.4,31-6.1,39.8-6.1c12.8,0,31,2,37.1,6.1c0,0-2.7,9.4-5.4,15.5
		c-10.1-4-24.3-5.4-33-5.4C80.1,140.9,68,142.2,59.9,144.9L59.9,144.9z M120.6,132.1c2,0,4,2.7,4,4c0,2.7-2,4.7-4,4.7
		s-4.7-2-4.7-4.7C115.8,134.8,118.5,132.1,120.6,132.1z M106.4,129.4c2,0,4,2,4,4c0,2-2,4.7-4,4.7s-4.7-2.7-4.7-4.7
		C101.7,131.4,104.4,129.4,106.4,129.4z M90.9,128.1c2.7,0,4.7,2,4.7,4c0.1,2.5-1.9,4.7-4.5,4.7c-0.1,0-0.1,0-0.2,0
		c-1.3,0-4-2-4-4.7C86.8,130.1,89.5,128.1,90.9,128.1z M76.1,129.4c2.7,0,4.7,2,4.7,4c0,2-2,4.7-4.7,4.7c-2,0-4-2.7-4-4.7
		C72,131.4,74,129.4,76.1,129.4z M62.6,132.1c2,0,4.7,2.7,4.7,4c0,2.7-2.7,4.7-4.7,4.7s-4.7-2-4.7-4.7
		C57.9,134.8,60.6,132.1,62.6,132.1z"/>
	<path class="st1" d="M91.6,143.6c16.8,0,32.4,3.4,32.4,5.4c0,1.3-13.5,2.7-31,2.7c-16.8,0-31.7-1.3-31.7-2.7
		C61.2,146.9,74.7,143.6,91.6,143.6z M448.2,92.3c-0.7,0-2.7-1.3,0-2c1.3,0,5.4,0,9.4,5.4c2-0.7,6.1-7.4,10.8-5.4
		c0,0.7-14.8,33.7-16.8,36.4c-6.1-3.4-44.5-6.1-41.1-6.1c3.4,0-34.4,1.3-40.5,6.1c-2-3.4-16.8-37.1-16.8-37.1
		c4.7-2,9.4,4.7,11.5,5.4c3.4-5.4,7.4-5.4,8.1-5.4c4,0.7,1.3,1.3,1.3,2.7c-18.2,14.8,8.1,31.7,14.2,14.8
		c23.6,2.7,16.8-16.8,11.5-19.5c-4.7-0.7-1.3-2,0-2c2-0.7,4.7-0.7,4.7,1.3c0-10.8,0.7-17.5,6.1-20.9c6.1,4,6.7,10.1,6.1,20.9
		c0.7-2,3.4-1.3,6.1-1.3c0.7,1.3,4,1.3,0.7,2.7c-6.7,2-12.8,22.2,10.8,18.9C439.4,124,467.7,105.2,448.2,92.3L448.2,92.3z
		 M432,111.9l7.4,8.1l-13.5-2L432,111.9L432,111.9z M410.4,102.5l8.8,15.5H403L410.4,102.5L410.4,102.5z M389.5,111.9l-6.7,8.1
		l13.5-2L389.5,111.9z"/>
	<path class="st1" d="M380.1,144.9c-2.7-4-6.1-12.1-7.4-14.2c6.1-5.4,30.3-6.1,39.1-6.1c13.5,0,31,2,37.1,6.1c0,0-2.7,9.4-4.7,15.5
		c-10.8-4-24.3-5.4-33.7-5.4C400.3,140.9,388.2,142.2,380.1,144.9L380.1,144.9z M440.1,132.1c2,0,4.7,2.7,4.7,4
		c0,2.7-2.7,4.7-4.7,4.7c-2,0-4-2-4-4.7C436,134.8,438.1,132.1,440.1,132.1z M425.9,129.4c2,0,4.7,2,4.7,4c0,2-2.7,4.7-4.7,4.7
		c-2,0-4-2.7-4-4.7C421.9,131.4,423.9,129.4,425.9,129.4z M411.1,128.1c2,0,4,2,4,4c0,2.7-2,4.7-4,4.7c-2,0-4.7-2-4.7-4.7
		C406.4,130.1,409.1,128.1,411.1,128.1z M395.6,129.4c2.7,0,4.7,2,4.7,4c0,2-2,4.7-4.7,4.7c-1.3,0-4-2.7-4-4.7
		C391.5,131.4,394.2,129.4,395.6,129.4z M382.1,132.1c2,0,4.7,2.7,4.7,4c0,2.7-2.7,4.7-4.7,4.7s-4-2-4-4.7
		C378.1,134.8,380.1,132.1,382.1,132.1z"/>
	<path class="st1" d="M411.1,143.6c16.8,0,32.4,3.4,32.4,5.4c0,1.3-13.5,2.7-31,2.7c-16.8,0-31.7-1.3-31.7-2.7
		C380.8,146.9,394.2,143.6,411.1,143.6z"/>
	<path class="st0" d="M83.5,326.3c1.3-2.7,3.4-10.1,4.7-12.1c-1.3-2.7-3.4-5.4-6.1-5.4c1.3-2.7,5.4-6.1,4.7-8.1
		c-0.7-2.7-2.7-2-7.4-4c1.3-3.4,5.4-5.4,6.7-5.4c2.7-0.7,2.7-4,7.4-6.1c4-2.7,8.8-2.7,13.5-2.7c7.4,0.7,26.3,6.1,21.6,29
		c10.8,22.9,51.2-8.1,64.7-8.1c-2.7,5.4-5.4,10.8-8.8,15.5c4,2.7,8.8,0,13.5,0c-4.7,12.8-12.1,18.2-18.2,22.9
		c6.1,20.9,29.7,12.8,51.2,10.1c-2.7,6.7-11.5,8.1-15.5,13.5c7.4,7.4,15.5,17.5,20.2,27.6c-9.4-6.1-29-12.8-35.7-15.5
		c-12.1-4.7-38.4-4.7-51.2,0c2.7,5.4,7.4,7.4,11.5,10.8c-6.1,12.1-19.5,4.7-27,2.7c-6.7,4.7-18.9,4.7-21.6,2c0,0,0-2.7,3.4-6.1
		c2.7-3.4-7.4-4-10.8-9.5c0-4,6.1,0,8.1-4.7C106.4,360,79.4,357.3,83.5,326.3L83.5,326.3z M101.7,289.9c1.3,0,2,1.3,2,2.7
		s-0.7,2.7-2,2.7c-1.3,0-2.7-1.3-2.7-2.7S100.3,289.9,101.7,289.9z M264.8,329.6c0.7-2,3.4-9.5,5.4-12.1c-2-2.7-4.7-5.4-6.1-5.4
		c0.7-2.7,5.4-6.1,4-8.1c-0.7-2-2.7-1.3-6.7-4c1.3-3.4,4-5.4,6.7-5.4s2.7-4,6.1-6.7c4.7-1.3,9.4-1.3,14.8-2
		c6.7,0.7,26.3,6.1,20.9,29c11.5,22.9,51.2-8.1,65.4-8.1c-2.7,5.4-6.7,10.8-8.8,15.5c3.4,2.7,8.8,0,12.8,0
		c-4,12.8-12.1,18.2-18.2,23.6c6.1,19.5,30.3,12.1,51.2,9.4c-2,7.4-10.8,8.1-15.5,13.5c7.4,7.4,15.5,17.5,20.9,28.3
		c-9.4-6.7-29.7-13.5-35.7-16.2c-13.5-4.7-39.1-4.7-51.9,0c2.7,5.4,8.1,8.1,11.5,10.1c-6.7,13.5-18.9,6.1-26.3,3.4
		c-7.4,4.7-18.9,4.7-22.2,2.7c0,0,0-4,4-6.7c2-3.4-7.4-4-10.8-9.5c0-4.7,4.7,0,8.1-4.7C287.7,363.3,261.4,360.6,264.8,329.6
		L264.8,329.6z M282.3,293.9c2,0,2.7,0.7,2.7,2c0,1.3-0.7,2.7-2.7,2.7c-1.3,0-2-1.3-2-2.7S281,293.9,282.3,293.9z M177.8,459.1
		c1.3-2.7,3.4-10.1,5.4-12.8c-2-2-4-5.4-6.1-5.4c0.7-2.7,4.7-5.4,4-7.4c-0.7-2.7-2-2-7.4-4.7c2-2.7,5.4-4.7,7.4-5.4
		c2.7,0,2.7-3.4,6.7-6.1c4-2,9.4-2,14.2-2.7c6.7,0.7,25.6,6.1,20.9,29.7c10.8,22.2,51.9-8.1,65.4-8.1c-2.7,4.7-6.1,10.1-8.8,15.5
		c4,2.7,8.8,0,12.8,0c-4,12.1-11.5,17.5-17.5,22.9c6.1,20.2,29.7,12.8,51.2,10.1c-2.7,6.7-11.5,7.4-15.5,12.8
		c7.4,8.1,15.5,17.5,20.2,28.3c-9.4-6.1-29-12.8-35.7-15.5c-12.8-4.7-38.4-4.7-51.9,0c2.7,4.7,7.4,7.4,12.1,10.1
		c-6.7,12.8-19.5,5.4-27.6,2.7c-6.1,5.4-18.2,5.4-21.6,2.7c0,0,0-3.4,4-6.1c2.7-4-7.4-4.7-10.8-9.4c0-4.7,5.4,0,8.1-4.7
		C200.8,492.1,173.8,489.4,177.8,459.1z M196.7,422.6c0.7,0,2,0.7,2,2.7c0,0.7-1.3,2-2,2c-2,0-3.4-1.3-3.4-2
		C193.4,423.3,194.7,422.6,196.7,422.6z"/>
	<g>
		<path class="st1" d="M196.1,43.1c0,0,11.5,4.7,21.6,0.7c11.5-4.7,22.2-7.4,30.3-3.4v97.8c-6.7-2.7-16.2-1.3-27,1.3
			c-10.1,2-16.2,2.7-24.9,0.7V43.1z M228.4,115.3c0-3.4,2.7-4,4-4s3.4,0.7,3.4,4c0,4-2,5.4-3.4,5.4S228.4,119.3,228.4,115.3z
			 M225.7,115.3c0,6.7,4.7,7.4,6.7,7.4c1.3,0,6.1-0.7,6.1-7.4c0-6.1-4.7-6.7-6.1-6.7C230.4,108.5,225.7,109.2,225.7,115.3z
			 M220.3,118.6l-4.7-9.4h-3.4v13.5h2.7v-9.4l5.4,9.4h2.7v-13.5h-2.7V118.6z M206.8,124h2.7v-13.5h-2.7V124z M240.5,80.2h-4l-2,10.1
			l-2.7-10.1h-4v13.5h2.7V82.9l2.7,10.8h2.7l2.7-10.8v10.8h2V80.2z M216.3,88.3c0-4,2-4.7,3.4-4.7c1.3,0,3.4,0.7,3.4,4.7
			c0,3.4-2,4.7-3.4,4.7C218.3,93,216.3,91.7,216.3,88.3z M213.6,88.3c0,6.1,4,6.7,6.1,6.7c1.3,0,6.1-0.7,6.1-6.7s-4.7-6.7-6.1-6.7
			C217.6,81.6,213.6,82.2,213.6,88.3z M203.5,84.9h2.7c1.3,0,2.7,0.7,2.7,4.7c0,2-0.7,4-2.7,4h-2.7V84.9L203.5,84.9z M200.8,96.4
			h5.4c4.7,0,5.4-4.7,5.4-6.7c0-2.7-0.7-6.7-4.7-6.7h-6.1V96.4L200.8,96.4z M225.7,64.7l-5.4-9.4h-2.7v12.8h2v-8.8l5.4,8.8h2.7V55.3
			h-2V64.7z M210.9,68.8h2.7V55.9h-2.7V68.8z M193.4,43.1l-9.4,7.4V149l9.4-8.8V43.1z"/>
		<path class="st1" d="M186.6,150.3l9.4-7.4c6.7,2,20.9-0.7,27.6-2c11.5-1.3,16.2-4,24.3,0c-4.7,2-7.4,6.1-7.4,9.4H186.6
			L186.6,150.3z M311.3,150.3l-8.8-7.4c-7.4,2-20.9-0.7-27.6-2c-12.1-1.3-16.2-4-22.9,0c3.4,2,6.1,6.1,5.4,9.4H311.3z M305.3,41.8
			l8.8,8.8v97.1l-8.8-8.1V41.8z"/>
		<path class="st1" d="M301.9,43.1c0,0-11.5,4.7-20.9,0.7c-12.1-4.7-22.2-7.4-29-3.4v97.8c6.1-2.7,14.2-1.3,24.9,1.3
			c10.8,2,16.8,2.7,24.9,0.7L301.9,43.1L301.9,43.1L301.9,43.1z M262.8,122h5.4c4.7,0,5.4-4,5.4-6.7c0-2.7-0.7-6.1-5.4-6.1h-5.4V122
			z M265.5,111.2h2.7c1.3,0,2.7,0.7,2.7,4c0,2.7-0.7,4.7-2.7,4.7h-2.7V111.2L265.5,111.2z M276.9,117.3c0,6.7,4.7,7.4,6.7,7.4
			c1.3,0,6.1-0.7,6.1-7.4c0-6.1-4.7-6.7-6.1-6.7C281.7,110.6,276.9,111.2,276.9,117.3z M280.3,117.3c0-3.4,1.3-4,3.4-4
			c1.3,0,3.4,0.7,3.4,4c0,4-2,4.7-3.4,4.7C281.7,122,280.3,121.3,280.3,117.3z M269.5,91h6.1v-2.7h-6.1v-2.7h6.7v-2h-9.4v12.8h2.7
			V91z M279.6,96.4h2.7V83.6h-2.7V96.4z M267.5,60c0-2-2-4.7-5.4-4.7c-4,0-6.1,2.7-6.1,6.7c0,4.7,2,7.4,6.1,7.4c2.7,0,4.7-2,5.4-4.7
			h-2.7c-0.7,1.3-1.3,2-2.7,2c-2.7,0-3.4-2-3.4-4.7c0-3.4,2-4,3.4-4c2,0,2,1.3,2.7,2H267.5z M269.5,64c0,6.1,4.7,6.7,6.7,6.7
			c1.3,0,6.1-0.7,6.1-6.7s-4.7-6.7-6.1-6.7C274.2,57.3,269.5,58,269.5,64z M272.9,64c0-4,2-4.7,3.4-4.7c1.3,0,3.4,0.7,3.4,4.7
			c0,3.4-2,4.7-3.4,4.7C274.9,68.8,272.9,67.4,272.9,64z M292.4,66.7l-4.7-9.4h-3.4v13.5h2.7v-9.4l5.4,9.4h2.7V57.3h-2.7V66.7z
			 M250,142.9c-4,4-6.1,4-4.7,7.4h8.1C254,146.9,253.4,144.9,250,142.9z"/>
	</g>
</g>
</svg>
