<?xml version="1.0" encoding="utf-8"?>
<!-- Generator: Adobe Illustrator 26.4.1, SVG Export Plug-In . SVG Version: 6.00 Build 0)  -->
<svg version="1.1" id="Layer_1" xmlns="http://www.w3.org/2000/svg" xmlns:xlink="http://www.w3.org/1999/xlink" x="0px" y="0px"
	 viewBox="0 0 1034 430.6" style="enable-background:new 0 0 1034 430.6;" xml:space="preserve">
<style type="text/css">
	.st0{fill:#373B45;}
</style>
<path class="st0" d="M189.1,288.3l-36.3-138.9l-36.9,138.9H86.1L34.7,97h29.6l36.6,139l36.8-139H167l37.2,139l36.5-139h29.6
	l-51.4,191.3H189.1z M284,97.6l29.6-2.5V142l-0.5,17.5h1.1c13.7-5.2,24.8-7.7,38.2-7.7c23.9,0,40.1,11,40.1,52.9v83.6h-29.6v-81.1
	c0-25.2-12.1-28.5-25.8-28.5c-8.6,0-15.9,1.9-23.4,4.1v105.5H284L284,97.6z M433.1,99.5c15.3,0,17.8,9,17.8,19.2
	c0,10.1-3.2,19.5-17.8,19.5s-17.5-9.3-17.5-19.5S418.3,99.5,433.1,99.5 M418.3,153.8h29.6v134.5h-29.6V153.8z M472.9,153.8H493l4,11
	h1.9c7.8-6.8,20.2-12.9,36.3-12.9c1.9,0,4,0,6.2,0.3v29.6c-5.4-0.8-11-1.6-16.7-1.6c-8.1,0-14.5,1.9-22.3,5.5v102.8h-29.6V153.8
	H472.9z M554.1,288.3V97.6l29.6-2.5v193.2H554.1z M794,151.8c42,0,58.1,25.2,58.1,69.9c0,41.9-15.1,69.3-58.7,69.3
	s-58.9-27.4-58.9-69.3C734.6,177,752.1,151.8,794,151.8 M822,221.7c0-25.5-4-46.3-27.7-46.3c-23.9,0-29.9,20-29.9,46.3
	c0,24.4,4.8,45.5,28.5,45.5S822,247.2,822,221.7 M926.7,151.8c42,0,58.1,25.2,58.1,69.9c0,41.9-15.1,69.3-58.6,69.3
	c-43.6,0-58.9-27.4-58.9-69.3C867.2,177,884.7,151.8,926.7,151.8 M954.6,221.7c0-25.5-4-46.3-27.7-46.3c-23.9,0-29.9,20-29.9,46.3
	c0,24.4,4.8,45.5,28.5,45.5C949.3,267.2,954.6,247.2,954.6,221.7 M1004.4,288.3V97.6l29.6-2.5v193.2H1004.4z M716.8,349.8
	c-1.9,0.4-5.3,1-8.3,1c-10.3,0-16.1-4.4-16.1-16.4c0-12.4,7.7-16.8,17.4-16.8c3,0,5,0.6,6.5,1v5.9c-1.1-0.3-4.3-0.9-6.7-0.9
	c-5.6,0-10.1,0.9-10.1,10.6c0,9.6,4.6,10.6,9.7,10.6c2.7,0,4.9-0.6,7.4-1.1L716.8,349.8z M723.7,334.3c0-12.3,5.9-16.6,14.7-16.6
	s14.5,4.6,14.5,16.6s-5.8,16.6-14.6,16.6C729.4,350.9,723.7,346.4,723.7,334.3 M745.6,334.2c0-8.6-2.8-11.2-7.3-11.2
	c-4.6,0-7.4,3.1-7.5,11.2s2.8,11.3,7.4,11.3S745.6,342.8,745.6,334.2 M761.7,318.1h8.8c9.7,0,13.7,2.6,13.7,10.1
	c0,6.1-3.1,7.7-6.7,8.8v0.5l1,0.2c3.3,1.3,5.3,7.7,7.3,11.7v0.9h-7.6c-1.5-4.3-3.1-10.8-6.3-11.7h-3.4v11.7h-6.9L761.7,318.1z
	 M770.6,333.7c3.4,0,6.4-1,6.4-5.1s-2.4-4.8-6.3-4.8h-2.2v9.9H770.6z M793.8,318.1h8.6c9.4,0,13.9,2.2,13.9,10.5
	s-5.4,10.7-12.2,10.7h-3.5v11.2h-6.9v-32.4L793.8,318.1z M800.7,334.3h2.5c4,0,6-1.3,6-5.3c0-4.1-2-5.2-5.7-5.2h-2.8V334.3z
	 M822.3,334.3c0-12.3,5.9-16.6,14.7-16.6s14.5,4.6,14.5,16.6s-5.8,16.6-14.6,16.6C828,350.9,822.3,346.4,822.3,334.3 M844.2,334.2
	c0-8.6-2.8-11.2-7.3-11.2c-4.6,0-7.4,3.1-7.5,11.2s2.8,11.3,7.4,11.3S844.2,342.8,844.2,334.2 M860.3,318.1h8.8
	c9.7,0,13.7,2.6,13.7,10.1c0,6.1-3.1,7.7-6.7,8.8v0.5l1,0.2c3.3,1.3,5.3,7.7,7.3,11.7v0.9h-7.6c-1.5-4.3-3.1-10.8-6.3-11.7h-3.4
	v11.7h-6.9L860.3,318.1z M869.2,333.7c3.4,0,6.4-1,6.4-5.1s-2.4-4.8-6.3-4.8h-2.2v9.9H869.2z M889.7,349.7l11.3-31.8h6.7l11.9,31.8
	v0.7H912l-2.6-7.2h-10l-2.3,7.2h-7.4L889.7,349.7z M908.1,338.5l-3.2-11.1l-0.4-1.8H904l-0.4,1.8l-3.3,11.1H908.1z M931.3,323.7
	l-8.9,0.2v-5.8h24.7v5.8l-9-0.2v26.7h-6.9v-26.7H931.3z M954.4,318.1h6.9v32.3h-6.9V318.1z M969.4,334.3c0-12.3,5.9-16.6,14.7-16.6
	s14.5,4.6,14.5,16.6s-5.8,16.6-14.6,16.6S969.4,346.4,969.4,334.3 M991.4,334.2c0-8.6-2.8-11.2-7.3-11.2c-4.6,0-7.4,3.1-7.5,11.2
	s2.8,11.3,7.4,11.3C988.5,345.5,991.4,342.8,991.4,334.2 M1007.4,318.1h6l11.7,17l1.6,2.8h0.4v-19.8h6.9v32.3h-5.9l-12-17.6
	l-1.4-2.4h-0.5v20h-6.9v-32.3H1007.4z"/>
<path class="st0" d="M801.2,7.2c-24.7-26.7-116.9,24-210.9,103.1v10.3C682.4,42.2,769.1-3.9,789.1,17.7c10.2,11,1.2,45.3-21.8,85.2
	c-3.3,1.6-7,4.7-10.4,9.7c-29.2,42.8-72.1,94.8-118.7,139.6c-119.9,115.2-236,185.1-259.5,159.7c-13.4-14.5,8.6-61.3,48.7-116.8
	h-11.1c-42.5,59.1-65.5,110-48.5,128.4c29.6,32,163.9-46.2,283.6-161.1c54.2-52.1,95.4-96.3,120.8-135.5c7.3-11.3,7.6-19.4,4.6-22.9
	C805.6,58.3,815.9,23,801.2,7.2"/>
<path class="st0" d="M637.2,184.7c7.3-2.5,14.5-3.8,22.1-3.8c15.3,0,25.2,4.5,28.7,19.5c7.6-8.5,15-17.2,22.2-25.9
	c-8.3-15.6-21.6-22.6-37.5-22.6c-14.8,0-29.9,6.8-38.7,11.8h-1.3l-2.4-9.9H608v126.7c9.6-8.6,19-17.4,28.3-26.3
	C637.2,225.4,637.2,211.3,637.2,184.7 M689.1,225.2c-2,30.5-13.5,38.7-30,38.7c-3.3,0-6.3,0-9.2-0.1c-13.7,13.1-27.6,25.8-41.9,38.2
	v50.5l29.6-3.3v-61.6h0.8c8.3,1.6,17.5,2.7,25.8,2.7c34.4,0,55.2-23.3,55.2-70.4c0-9-0.7-17.1-2-24.2
	C708,205.7,698.6,215.5,689.1,225.2 M237.4,61.7c1.3-1.2,2.3-2.4,2.5-4.3s-0.9-3.2-2.6-3.9c-3.3-1.2-7.4-0.1-10.3,0.9
	c-1.6,0.6-3.2,1.1-4.9,1.6c-3.6,1-7.2,1.9-10.8,2.7c-4,0.8-7.9,1.5-11.9,2c-4.1,0.5-8.4,1-12.6,1.3c-5.6,0.4-11.2,0.6-16.8,0.6
	c-3.8,0-7.6-0.1-11.4-0.2c-5.3-0.2-10.6-0.4-15.6-0.8c-4.8-0.4-9.6-0.8-14.5-1.4c-4.3-0.5-8.6-1.2-12.9-2c-3.7-0.7-7.4-1.5-11-2.5
	c-2.8-0.7-5.6-1.6-8.3-2.6c-1.3-0.5-2.5-0.8-3.8-0.8c-1.2,0-2.8,0.3-3.4,1.5c-0.7,1.2,0.1,2.6,0.9,3.4c0.9,1,2,1.6,3.2,2.2
	c3.5,1.4,7.1,2.7,10.7,3.7c3.3,0.9,6.7,1.8,10.4,2.6s7.6,1.5,11.6,2.1c4.1,0.6,8.3,1.2,12.6,1.6c4.4,0.5,8.9,0.8,13.4,1.1
	c4.6,0.3,9.3,0.4,13.9,0.5c9.5,0.1,18.9-0.2,28.4-0.9c3.4-0.3,6.8-0.6,10.1-1c0.8-0.1,1.6-0.2,2.5-0.3c0,1.7,2.2,2.8,3.6,3.2
	c1.7,0.5,3.4,0.7,5.2,0.6c7.3-0.5,14.4-1.3,21.2-2.1c7-0.9,13.6-1.9,20-3.1c6.3-1.2,12.3-2.6,17.7-4.1c5.1-1.3,10-3,14.9-4.9
	c4.4-1.7,8.3-3.6,11.6-5.5c3.2-1.9,5.9-4,7.8-6c1.9-2.1,3.2-4.2,3.7-6.4s0.3-4.3-0.6-6.5s-2.6-4.3-5-6.4s-5.5-4.2-9.4-6.2
	c-3.8-2-8.3-3.9-13.5-5.7c-5.7-2-11.5-3.7-17.3-5.1c-6.8-1.7-13.7-3.1-20.6-4.2c-7.4-1.3-15.2-2.4-23.4-3.3
	c-8.5-0.9-17-1.7-25.5-2.2c-8.9-0.6-17.9-0.9-26.9-1c-9.1-0.1-18.3-0.1-27.4,0.2s-18.2,0.8-27.1,1.5C107.1,2.5,98.4,3.4,90,4.5
	S73.6,6.9,66,8.4c-7.1,1.4-14.2,3-21.2,5c-6.5,1.8-12.5,3.8-17.7,5.9c-5.3,2.1-9.8,4.3-13.7,6.7c-3.8,2.3-6.9,4.8-9.1,7.2
	c-2.2,2.5-3.6,5-4.1,7.6S0,46,1.2,48.6s3.3,5.2,6.3,7.7s6.8,5,11.4,7.3c4.6,2.4,10.1,4.6,16.3,6.8c6.2,2.1,13.1,4.1,20.7,6
	c7.6,1.8,15.8,3.5,24.6,5s18.1,2.8,27.8,3.8c9.7,1.1,19.8,1.9,30.2,2.5L143,88c1.4,0.1,2.7-0.1,4-0.7c1.2-0.5,2.4-1.5,2.5-2.9
	s-1-2.5-2.2-3.1c-1.3-0.6-2.5-0.9-3.9-1c-5.2-0.3-10.5-0.7-15.7-1.2c-6.6-0.6-13-1.4-19.3-2.3c-6-0.8-11.9-1.8-17.8-3
	c-5.3-1-10.6-2.2-15.9-3.5c-3.9-1-7.7-2.1-11.5-3.3c-9.7-3.2-17.5-6.7-23-10.6c-2.4-1.7-4.3-3.4-5.8-5.1s-2.5-3.5-3-5.2
	s-0.6-3.5-0.2-5.3c0.4-1.7,1.3-3.4,2.6-5.1s3.1-3.3,5.2-5c2.1-1.6,4.7-3.1,7.7-4.7c3.3-1.6,6.6-3.1,10.1-4.3
	c2.1-0.8,4.3-1.5,6.4-2.2c4.3-1.3,8.7-2.5,13.1-3.6c2.5-0.6,5.1-1.1,7.8-1.7c4.9-1,10-1.9,15.4-2.7s10.9-1.5,16.6-2.1
	c5.6-0.6,11.4-1,17.3-1.4c5.9-0.3,11.8-0.6,17.8-0.7c5.9-0.1,11.8-0.1,17.7,0s11.7,0.3,17.4,0.6s11.3,0.7,16.7,1.3
	c5.4,0.5,10.7,1.1,15.8,1.9c5,0.7,9.9,1.5,14.5,2.4c9.1,1.8,17.2,3.8,24,6.2c6.7,2.3,12.2,4.9,16.2,7.6c3.9,2.7,6.4,5.5,7.4,8.3
	c0.9,2.8,0.4,5.6-1.6,8.3s-5.4,5.3-10.1,7.7c-4.6,2.4-10.5,4.6-17.4,6.5C247.3,59.7,242.4,60.8,237.4,61.7"/>
<path class="st0" d="M88.8,37.5c-1.5,0.6-2.9,1-4.5,1c-1.3,0-3.4-0.2-4.1-1.5c-0.8-1.4,0.4-3,1.4-3.9c1.1-1.1,2.4-1.9,3.8-2.5
	c19.4-9.2,45.9-12.4,66.9-12.4h2.3c7.7,0.1,15.3,0.4,22.6,1c6.7,0.6,13.3,1.4,19.9,2.6c5.9,1.1,11.2,2.4,15.7,3.9
	c4.4,1.4,7.9,3,10.6,4.7c2.6,1.6,4.3,3.4,5.1,5.1c0.3,0.7,0.5,1.4,0.5,2.1c0,1-0.3,2-1,3c-1.1,1.6-3,3.2-5.8,4.6
	c-2.6,1.4-6,2.7-10.1,3.8c-3.9,1.1-8.3,2-13.2,2.8c-5,0.8-10,1.3-15,1.6c-2.5,0.2-5.1,0.3-7.7,0.4c-2,0-4.1,0.1-6.1,0.1
	c-0.5,0-0.9,0-1.4,0c-2.3,0-4.6-0.1-6.9-0.2c-2.2-0.1-4.4-0.3-6.5-0.5c-3.9-0.3-7.7-0.9-11.5-1.6c-3.3-0.6-6.3-1.4-8.9-2.2
	c-2.4-0.8-4.3-1.7-5.8-2.6c-1.3-0.9-2.2-1.8-2.6-2.8c-0.3-0.9-0.2-1.8,0.4-2.6c0.5-0.8,1.5-1.6,2.8-2.3c1.2-0.7,2.8-1.3,4.6-1.8
	c1.9-0.5,3.7-0.9,5.7-1.2s3.9-0.5,5.9-0.6c2.9-0.2,5.8-0.2,8.6,0c2.1,0.1,4.1,0.4,5.9,0.6c2.1,0.3,4,0.7,5.7,1.2
	c1.6,0.4,3.1,1,4.6,1.8c1.3,0.7,2.3,1.5,2.8,2.3c0.6,0.9,0.7,1.8,0.4,2.6c-0.2,0.6-0.6,1.1-1.2,1.7c0.8,0,1.7-0.1,2.5-0.2
	c2.6-0.2,5.1-0.7,7.6-1.3c1.2-0.3,2.3-0.7,3.3-1.1s1.9-0.8,2.7-1.3s1.5-1,2-1.5s0.9-1.1,1.1-1.7s0.2-1.2,0.1-1.8
	c-0.2-0.7-0.6-1.3-1.1-1.8c-0.7-0.7-1.4-1.3-2.2-1.8c-1.1-0.7-2.2-1.3-3.4-1.7c-1.5-0.6-3-1.1-4.6-1.6c-1.7-0.5-3.6-0.9-5.6-1.3
	c-2.2-0.4-4.4-0.8-6.6-1.1c-5.3-0.6-10.7-1-16.1-0.9C132.1,26.6,107.7,29.5,88.8,37.5"/>
</svg>
