<?xml version="1.0" encoding="UTF-8"?><svg id="Layer_2" xmlns="http://www.w3.org/2000/svg" viewBox="0 0 42.95 43"><g id="Layer_1-2"><path d="M27,43v-1.55c4.03,.03,7.45-1.35,10.25-4.15,2.8-2.8,4.2-6.22,4.2-10.25h1.5c-.03,2.2-.46,4.28-1.28,6.22-.82,1.95-1.94,3.64-3.38,5.08s-3.12,2.57-5.05,3.4c-1.93,.83-4.02,1.25-6.25,1.25Zm0-5.8v-1.5c2.33,0,4.36-.86,6.08-2.58s2.58-3.74,2.58-6.07h1.5c0,2.73-1.01,5.11-3.03,7.13s-4.39,3.02-7.12,3.02Zm-16.7,3.6c-.37,0-.71-.05-1.02-.15-.32-.1-.59-.27-.82-.5L.7,32.4c-.27-.23-.45-.51-.55-.83-.1-.32-.15-.64-.15-.97s.06-.65,.17-.95c.12-.3,.29-.58,.52-.85l6.15-6.1c.47-.5,1.05-.75,1.75-.75,.7,0,1.3,.25,1.8,.75l3.3,3.2,3-3-3.2-3.25c-.53-.5-.8-1.1-.8-1.8s.27-1.3,.8-1.8l2.45-2.5c.5-.47,1.1-.7,1.8-.7s1.3,.23,1.8,.7l3.25,3.25,3-3.05-3.2-3.25c-.5-.5-.75-1.1-.75-1.8s.25-1.3,.75-1.8L28.7,.75c.23-.27,.51-.46,.83-.58,.32-.12,.64-.17,.98-.17s.65,.05,.95,.15c.3,.1,.6,.28,.9,.55l7.75,7.75c.2,.23,.36,.52,.47,.85,.12,.33,.17,.67,.17,1s-.06,.66-.17,.98c-.12,.32-.29,.59-.53,.82l-6.1,6.15c-.6,.57-1.21,.85-1.83,.85s-1.21-.28-1.78-.85l-3.25-3.3-3.1,3.1,3.25,3.25c.47,.5,.7,1.11,.7,1.83s-.23,1.31-.7,1.77l-2.45,2.45c-.5,.5-1.11,.75-1.83,.75-.72,0-1.31-.23-1.77-.7l-3.25-3.3-3.05,3.05,3.3,3.3c.47,.5,.7,1.1,.7,1.8s-.23,1.28-.7,1.75l-6.15,6.15c-.27,.23-.55,.4-.85,.5-.3,.1-.6,.15-.9,.15Zm-.7-1.65c.17,.17,.38,.25,.65,.25s.5-.08,.7-.25l2.5-2.5L4.25,27.45l-2.5,2.55c-.2,.17-.3,.38-.3,.62s.1,.47,.3,.67l7.85,7.85Zm5.1-3.8l2.45-2.5c.2-.17,.3-.38,.3-.65s-.1-.48-.3-.65l-7.85-7.9c-.17-.17-.38-.25-.65-.25s-.48,.08-.65,.25l-2.55,2.5,9.25,9.2ZM31.45,17.15c.17,.2,.38,.3,.65,.3s.48-.1,.65-.3l2.55-2.45L26.1,5.45l-2.5,2.55c-.2,.2-.3,.43-.3,.68,0,.25,.1,.48,.3,.68l7.85,7.8Zm5.15-3.7l2.45-2.5c.17-.17,.25-.38,.25-.65s-.08-.5-.25-.7L31.2,1.75c-.17-.17-.39-.25-.67-.25-.28,0-.49,.08-.62,.25l-2.55,2.5,9.25,9.2Z" style="fill:#f7f7f7;"/></g></svg>