<?xml version="1.0" encoding="UTF-8"?><svg id="Layer_2" xmlns="http://www.w3.org/2000/svg" viewBox="0 0 1314.61 1314.61"><g id="Layer_2-2"><g id="g28"><g id="g34"><path id="path36" d="M657.31,68c-79.57,0-156.74,15.58-229.37,46.3-70.17,29.68-133.2,72.17-187.33,126.31-54.13,54.13-96.63,117.16-126.31,187.33-30.72,72.63-46.3,149.8-46.3,229.37s15.58,156.74,46.3,229.37c29.68,70.17,72.18,133.2,126.31,187.33,54.13,54.13,117.16,96.63,187.33,126.31,72.63,30.72,149.8,46.3,229.37,46.3s156.74-15.58,229.37-46.3c70.17-29.68,133.2-72.17,187.33-126.31,54.13-54.13,96.63-117.16,126.31-187.33,30.72-72.63,46.3-149.8,46.3-229.37s-15.58-156.74-46.3-229.37c-29.68-70.17-72.18-133.2-126.31-187.33-54.13-54.13-117.16-96.63-187.33-126.31-72.63-30.72-149.8-46.3-229.37-46.3m0,1246.61c-88.72,0-174.81-17.38-255.86-51.67-78.27-33.11-148.57-80.5-208.92-140.85-60.35-60.35-107.74-130.65-140.85-208.92C17.38,832.11,0,746.03,0,657.31s17.38-174.81,51.67-255.86c33.11-78.28,80.5-148.57,140.85-208.92,60.36-60.35,130.65-107.75,208.92-140.85C482.5,17.38,568.59,0,657.31,0s174.81,17.38,255.86,51.67c78.28,33.11,148.57,80.5,208.92,140.85s107.74,130.65,140.85,208.92c34.28,81.06,51.67,167.14,51.67,255.86s-17.38,174.8-51.67,255.86c-33.11,78.28-80.5,148.57-140.85,208.92-60.35,60.35-130.65,107.74-208.92,140.85-81.06,34.28-167.14,51.67-255.86,51.67" style="fill:#fff;"/></g><g id="g38" style="opacity:.44;"><path id="path40" d="M657.31,267.32c-68.01,0-123.33,55.33-123.33,123.33,0,79.03-64.3,143.33-143.33,143.33-68.01,0-123.33,55.33-123.33,123.33s55.33,123.33,123.33,123.33c79.03,0,143.33,64.3,143.33,143.33,0,68.01,55.33,123.33,123.33,123.33s123.33-55.33,123.33-123.33c0-79.03,64.3-143.33,143.33-143.33,68.01,0,123.33-55.33,123.33-123.33s-55.33-123.33-123.33-123.33c-79.03,0-143.33-64.3-143.33-143.33,0-68.01-55.33-123.33-123.33-123.33m0,800c-79.03,0-143.33-64.3-143.33-143.33,0-68.01-55.33-123.33-123.33-123.33-79.03,0-143.33-64.3-143.33-143.33s64.3-143.33,143.33-143.33c68.01,0,123.33-55.33,123.33-123.33,0-79.03,64.3-143.33,143.33-143.33s143.33,64.3,143.33,143.33c0,68.01,55.33,123.33,123.33,123.33,79.03,0,143.33,64.3,143.33,143.33s-64.3,143.33-143.33,143.33c-68.01,0-123.33,55.33-123.33,123.33,0,79.03-64.3,143.33-143.33,143.33" style="fill:#fff;"/></g><g id="g42"><path id="path44" d="M657.31,881.18c39.27,0,78.53,14.95,108.42,44.84,21.41,21.41,49.87,33.19,80.14,33.19s58.73-11.79,80.14-33.19c44.19-44.19,44.19-116.09,0-160.28-28.96-28.96-44.91-67.47-44.91-108.42s15.95-79.46,44.91-108.42c21.41-21.41,33.2-49.87,33.2-80.14s-11.79-58.73-33.2-80.14c-44.19-44.19-116.09-44.19-160.28,0-59.78,59.78-157.06,59.78-216.84,0-21.41-21.41-49.87-33.2-80.14-33.2s-58.73,11.79-80.14,33.2c-44.19,44.19-44.19,116.09,0,160.28,28.96,28.96,44.91,67.47,44.91,108.42s-15.95,79.46-44.91,108.42c-21.41,21.41-33.2,49.87-33.2,80.14s11.79,58.73,33.2,80.14c21.41,21.41,49.87,33.19,80.14,33.19s58.73-11.79,80.14-33.19c29.89-29.89,69.16-44.84,108.42-44.84m188.56,118.03c-40.96,0-79.46-15.95-108.42-44.91-44.19-44.19-116.09-44.19-160.28,0-28.96,28.96-67.47,44.91-108.42,44.91s-79.46-15.95-108.42-44.91-44.91-67.47-44.91-108.42,15.95-79.46,44.91-108.42c21.41-21.41,33.2-49.87,33.2-80.14s-11.79-58.73-33.2-80.14c-59.78-59.79-59.78-157.06,0-216.85,28.96-28.96,67.47-44.91,108.42-44.91s79.46,15.95,108.42,44.91c44.19,44.19,116.09,44.19,160.28,0,59.79-59.79,157.06-59.79,216.85,0,28.96,28.96,44.91,67.47,44.91,108.42s-15.95,79.46-44.91,108.42c-21.41,21.41-33.19,49.87-33.19,80.14s11.79,58.73,33.19,80.14c59.79,59.78,59.79,157.06,0,216.85-28.96,28.96-67.47,44.91-108.42,44.91" style="fill:#fff;"/></g></g></g></svg>