<?xml version="1.0" encoding="utf-8"?>
<!-- Generator: Adobe Illustrator 26.4.1, SVG Export Plug-In . SVG Version: 6.00 Build 0)  -->
<svg version="1.1"
	 id="svg2" xmlns:svg="http://www.w3.org/2000/svg" xmlns:cc="http://creativecommons.org/ns#" xmlns:dc="http://purl.org/dc/elements/1.1/" xmlns:rdf="http://www.w3.org/1999/02/22-rdf-syntax-ns#"
	 xmlns="http://www.w3.org/2000/svg" xmlns:xlink="http://www.w3.org/1999/xlink" x="0px" y="0px" viewBox="0 0 4000 2000"
	 style="enable-background:new 0 0 4000 2000;" xml:space="preserve">
<style type="text/css">
	.st0{clip-path:url(#SVGID_00000163792427033441508690000009710789636175568021_);}
	.st1{fill:#FFFFFF;}
	.st2{opacity:0.44;}
</style>
<g id="g10" transform="matrix(1.3333333,0,0,-1.3333333,0,2000)">
	<g id="g12">
		<g>
			<defs>
				<rect id="SVGID_1_" x="-500" y="-250" width="4000" height="2000"/>
			</defs>
			<clipPath id="SVGID_00000150790394469022127530000008080097175725007513_">
				<use xlink:href="#SVGID_1_"  style="overflow:visible;"/>
			</clipPath>
		</g>
	</g>
	<g id="g26">
		<g>
			<defs>
				<rect id="SVGID_00000035500549359698310780000010904153631955694996_" x="-500" y="-250" width="4000" height="2000"/>
			</defs>
			<clipPath id="SVGID_00000173139687758830680430000004326083723135591063_">
				<use xlink:href="#SVGID_00000035500549359698310780000010904153631955694996_"  style="overflow:visible;"/>
			</clipPath>
			<g id="g28" style="clip-path:url(#SVGID_00000173139687758830680430000004326083723135591063_);">
				<g id="g34" transform="translate(2250.0002,1191.9799)">
					<path id="path36" class="st1" d="M0,0c-59.7,0-117.6-11.7-172-34.7c-52.6-22.3-99.9-54.1-140.5-94.7
						c-40.6-40.6-72.5-87.9-94.7-140.5c-23-54.5-34.7-112.4-34.7-172s11.7-117.6,34.7-172c22.3-52.6,54.1-99.9,94.7-140.5
						c40.6-40.6,87.9-72.5,140.5-94.7c54.5-23,112.4-34.7,172-34.7c59.7,0,117.6,11.7,172,34.7c52.6,22.3,99.9,54.1,140.5,94.7
						c40.6,40.6,72.5,87.9,94.7,140.5c23,54.5,34.7,112.4,34.7,172s-11.7,117.6-34.7,172c-22.3,52.6-54.1,99.9-94.7,140.5
						C271.9-88.9,224.7-57,172-34.7C117.6-11.7,59.7,0,0,0 M0-935c-66.5,0-131.1,13-191.9,38.8c-58.7,24.8-111.4,60.4-156.7,105.6
						c-45.3,45.3-80.8,98-105.6,156.7C-479.9-573.1-493-508.5-493-442c0,66.5,13,131.1,38.8,191.9c24.8,58.7,60.4,111.4,105.6,156.7
						c45.3,45.3,98,80.8,156.7,105.6C-131.1,38-66.5,51,0,51c66.5,0,131.1-13,191.9-38.8c58.7-24.8,111.4-60.4,156.7-105.6
						s80.8-98,105.6-156.7C479.9-310.9,493-375.4,493-442c0-66.5-13-131.1-38.8-191.9c-24.8-58.7-60.4-111.4-105.6-156.7
						s-98-80.8-156.7-105.6C131.1-921.9,66.5-935,0-935"/>
				</g>
				<g id="g38" transform="translate(2250.0002,1042.4916)" class="st2">
					<path id="path40" class="st1" d="M0,0c-51,0-92.5-41.5-92.5-92.5c0-59.3-48.2-107.5-107.5-107.5c-51,0-92.5-41.5-92.5-92.5
						S-251-385-200-385c59.3,0,107.5-48.2,107.5-107.5c0-51,41.5-92.5,92.5-92.5c51,0,92.5,41.5,92.5,92.5
						C92.5-433.2,140.7-385,200-385c51,0,92.5,41.5,92.5,92.5S251-200,200-200c-59.3,0-107.5,48.2-107.5,107.5C92.5-41.5,51,0,0,0
						 M0-600c-59.3,0-107.5,48.2-107.5,107.5c0,51-41.5,92.5-92.5,92.5c-59.3,0-107.5,48.2-107.5,107.5
						c0,59.3,48.2,107.5,107.5,107.5c51,0,92.5,41.5,92.5,92.5C-107.5-33.2-59.3,15,0,15c59.3,0,107.5-48.2,107.5-107.5
						c0-51,41.5-92.5,92.5-92.5c59.3,0,107.5-48.2,107.5-107.5c0-59.3-48.2-107.5-107.5-107.5c-51,0-92.5-41.5-92.5-92.5
						C107.5-551.8,59.3-600,0-600"/>
				</g>
				<g id="g42" transform="translate(2249.9993,582.0956)">
					<path id="path44" class="st1" d="M0,0c29.4,0,58.9-11.2,81.3-33.6c16.1-16.1,37.4-24.9,60.1-24.9s44,8.8,60.1,24.9
						c33.1,33.1,33.1,87.1,0,120.2c-21.7,21.7-33.7,50.6-33.7,81.3c0,30.7,12,59.6,33.7,81.3c16.1,16.1,24.9,37.4,24.9,60.1
						c0,22.7-8.8,44-24.9,60.1c-33.1,33.1-87.1,33.1-120.2,0c-44.8-44.8-117.8-44.8-162.6,0c-16.1,16.1-37.4,24.9-60.1,24.9
						s-44-8.8-60.1-24.9c-33.1-33.1-33.1-87.1,0-120.2c21.7-21.7,33.7-50.6,33.7-81.3c0-30.7-12-59.6-33.7-81.3
						c-16.1-16.1-24.9-37.4-24.9-60.1s8.8-44,24.9-60.1c16.1-16.1,37.4-24.9,60.1-24.9s44,8.8,60.1,24.9C-58.9-11.2-29.4,0,0,0
						 M141.4-88.5c-30.7,0-59.6,12-81.3,33.7C27-21.7-27-21.7-60.1-54.8c-21.7-21.7-50.6-33.7-81.3-33.7c-30.7,0-59.6,12-81.3,33.7
						s-33.7,50.6-33.7,81.3c0,30.7,12,59.6,33.7,81.3c16.1,16.1,24.9,37.4,24.9,60.1s-8.8,44-24.9,60.1
						c-44.8,44.8-44.8,117.8,0,162.6c21.7,21.7,50.6,33.7,81.3,33.7c30.7,0,59.6-12,81.3-33.7c33.1-33.1,87.1-33.1,120.2,0
						c44.8,44.8,117.8,44.8,162.6,0c21.7-21.7,33.7-50.6,33.7-81.3c0-30.7-12-59.6-33.7-81.3c-16.1-16.1-24.9-37.4-24.9-60.1
						s8.8-44,24.9-60.1c44.8-44.8,44.8-117.8,0-162.6C201-76.6,172.1-88.5,141.4-88.5"/>
				</g>
			</g>
		</g>
	</g>
</g>
</svg>
