<?xml version="1.0" encoding="utf-8"?>
<!-- Generator: Adobe Illustrator 26.5.0, SVG Export Plug-In . SVG Version: 6.00 Build 0)  -->
<svg version="1.1" id="Layer_1" xmlns:svgjs="http://svgjs.com/svgjs"
	 xmlns="http://www.w3.org/2000/svg" xmlns:xlink="http://www.w3.org/1999/xlink" x="0px" y="0px" viewBox="0 0 500.1 328.2"
	 style="enable-background:new 0 0 500.1 328.2;" xml:space="preserve">
<style type="text/css">
	.st0{fill:#3C2C5B;}
	.st1{fill:#30F6FF;}
	.st2{opacity:0.2;fill:#246787;enable-background:new    ;}
	.st3{fill:none;stroke:#1A4C63;stroke-width:4;stroke-linecap:round;stroke-linejoin:round;}
	.st4{fill:#30242A;}
</style>
<g>
	<path class="st0" d="M48.3,116.7c0-6-1.3-59.1-36.8-95.6C2.9,12.2-0.9,5.9,0.2,2.7c0.5-1.4,1.9-2.3,4.1-2.6
		c6.7-0.8,19.5,3.7,25.8,8c17,11.8,34.7,24,54.1,72L48.3,116.7z"/>
	<path class="st1" d="M361,325.3l-0.6-27.6h115.5c13.4,0,24.2,10.9,24.2,24.1v4.6L361,325.3z"/>
	<path class="st1" d="M233.1,326.1c-15.4,0-28.9-10.8-32-25.9l-2.9-14.2c-3.1,0.5-6.2,0.7-9.2,0.7c-34.8,0-59.1-29.1-59.4-29.4
		c-16.3,19.9-43.5,40.3-43.8,40.5c0,0,0,0,0.1,0c11,0,20,9,20,20.1v8.2H51.6L22.3,193.6c-5.6-24.8-2.4-50.9,9.1-73.6
		c16.9-32.6,47.8-51.2,84.8-51.2c33.4,0,67.2,15.3,90.4,40.8c49.9,55.3,105.8,135.3,106.5,136.1l31.5-8.1c3.1-0.8,6.4-1.2,9.6-1.2
		c11.7,0,22.7,5.2,30.1,14.4l15.7,19.4c1.9,2.4,4.8,3.8,7.9,3.8h36.9c0.1,0,0.3,0,0.4,0c5.2,0.2,9.2,4.6,9,9.9
		c-1.5,30.8-25.7,42.2-89,42.2H233.1v0.2V326.1z"/>
	<path class="st2" d="M129.7,257.4c0.2,0.3,24.6,29.4,59.4,29.4c3.1,0,6.2-0.2,9.2-0.7c0,0-1.5-8.6-2.9-20.7
		c-15.7-5.4-19.1-20.7-28.4-37.5c-5-9-10.8-12.6-10.8-12.6C145.7,239.4,129.7,257.4,129.7,257.4z"/>
	<path class="st3" d="M129.7,257.4c8.2-9.9,38.6-45.1,36.6-80.5c-2.2-37.9-24.9-58-24.9-58"/>
	<path class="st3" d="M193.7,236.5c0,0,1.6,28.6,4.6,49.5"/>
	<path class="st3" d="M77.6,314.1v11"/>
	<path class="st3" d="M90.6,314.1v11"/>
	<path class="st3" d="M326,314.1v11"/>
	<path class="st3" d="M339.1,314.1v11"/>
	<path class="st4" d="M373.9,282.3c3,0,5.3-2.4,5.3-5.3c0-3-2.4-5.3-5.3-5.3s-5.3,2.4-5.3,5.3S371,282.3,373.9,282.3z"/>
	<path class="st0" d="M245.1,326.1c-1.1-14.4,12.8-23.7,21.3-28c6.4-3.3,12-8,16.4-13.7l30.2-38.7l31.6-8l-0.1,0.4L327.4,300
		c-6.7,0.7-16.4,3.4-20,9l-10.9,17L245.1,326.1z"/>
	<path class="st0" d="M245.1,211.2c-7.3,0-14.6-1.5-22-4.4c-45.6-18.5-32.1-67.7-31.9-68.2c-7.4-5.1-11.8-11.8-13.1-19.9
		c-1.8-10.3,2.3-21.4,6.9-27.7c7.9,5.4,15.1,11.7,21.6,18.8c21,23,45.4,53.3,73,89.9C268.4,207.2,256.9,211.2,245.1,211.2z"/>
	<path class="st0" d="M96.9,162.3c7.1-12.6,5.3-27.2-4.1-32.5c-9.4-5.3-22.8,0.6-29.9,13.3s-5.3,27.2,4.1,32.5
		C76.4,180.9,89.8,174.9,96.9,162.3z"/>
	<path class="st0" d="M451,290.4c-0.9,0-1.8-0.1-2.6-0.3c-7.4-1.4-12.2-8.6-10.8-16h7.1c0.1,0,0.3,0,0.4,0c2.6,0.1,4.8,1.1,6.6,3.1
		c1.7,1.8,2.6,4.3,2.5,6.8c-0.1,2-0.3,4.2-0.7,6.3C452.6,290.4,451.8,290.4,451,290.4z"/>
	<path class="st3" d="M352,326.2v-4.5c0-13.3-9.9-22-23.2-22"/>
	<path class="st3" d="M472.8,314.1v10.7"/>
	<path class="st3" d="M485.8,314.1v10.7"/>
	<path class="st3" d="M403,324.4c29-2.9,41.5-8,47.8-24.7"/>
</g>
</svg>
