<?xml version="1.0" encoding="utf-8"?>
<!-- Generator: Adobe Illustrator 26.4.1, SVG Export Plug-In . SVG Version: 6.00 Build 0)  -->
<svg version="1.1" id="Layer_1" xmlns:svgjs="http://svgjs.com/svgjs"
	 xmlns="http://www.w3.org/2000/svg" xmlns:xlink="http://www.w3.org/1999/xlink" x="0px" y="0px" viewBox="0 0 1312.6 979.6"
	 style="enable-background:new 0 0 1312.6 979.6;" xml:space="preserve">
<style type="text/css">
	.st0{fill:#30F6FF;}
	.st1{fill:none;stroke:#1C2324;stroke-width:4;stroke-linecap:round;stroke-linejoin:round;}
	.st2{fill:#FF326C;}
	.st3{fill:#FFFFFF;}
	.st4{fill:#CECECE;}
	.st5{fill:#231F20;}
	.st6{fill:none;stroke:#5C5C5C;stroke-width:4;stroke-linecap:round;stroke-linejoin:round;}
	.st7{fill:#A0FBFF;}
	.st8{fill:none;stroke:#8D8D8D;stroke-width:4;stroke-linecap:round;stroke-linejoin:round;}
	.st9{fill:none;stroke:#000000;stroke-width:4;stroke-linecap:round;stroke-linejoin:round;}
	.st10{fill:none;stroke:#FFFFFF;stroke-width:4;stroke-linecap:round;stroke-linejoin:round;}
	.st11{fill:#F2CBB9;}
	.st12{opacity:0.3;fill:#584035;enable-background:new    ;}
	.st13{fill:#61CDFF;}
	.st14{opacity:0.3;enable-background:new    ;}
	.st15{fill:#501F11;}
	.st16{fill:none;stroke:#584035;stroke-width:4;stroke-linecap:round;stroke-linejoin:round;}
	.st17{fill:none;stroke:#146367;stroke-width:4;stroke-linecap:round;stroke-linejoin:round;}
	.st18{fill:#A5A5A5;}
	.st19{fill:#A5A5A5;stroke:#A5A5A5;stroke-width:4;}
</style>
<g>
	<path class="st0" d="M855.9,213.6h379.3c17.3,0,31.3,14,31.3,31.3v560.4c0,17.3-14,31.3-31.3,31.3H855.9c-17.3,0-31.3-14-31.3-31.3
		V245C824.5,227.6,838.5,213.6,855.9,213.6z"/>
	<path class="st1" d="M1001.4,213.6v623"/>
	<path class="st1" d="M913,213.6v623"/>
	<path class="st1" d="M1089.6,213.6v623"/>
	<path class="st1" d="M1178,213.6v623"/>
	<path class="st1" d="M824.5,658.8h441.9"/>
	<path class="st1" d="M824.5,747.8l441.9,0.4"/>
	<path class="st1" d="M824.5,480.6l441.9,0.2"/>
	<path class="st1" d="M824.9,569.8h441.6"/>
	<path class="st1" d="M824.5,391.6l441.9,0.1"/>
	<path class="st1" d="M824.5,302.6h441.9"/>
</g>
<g>
	<path class="st2" d="M946.7,58c-14,0-27.8,1.3-41.1,4l0.3,0.2l-55.7,470.6l-122,152.4h437v-404C1165.2,158,1067.4,58.1,946.7,58z"
		/>
	<path class="st3" d="M972.2,200.3c0-62.8-25.6-111.4-66.6-138.3c-93.8,18.4-164.9,96.9-175.9,193.8l-0.1,0.7
		c-0.1,1.4-0.3,2.7-0.4,4.1c0,0.4-0.1,0.9-0.1,1.3c-0.1,1.3-0.1,2.4-0.3,3.7c0,0.6-0.1,1.1-0.1,1.8c-0.1,1.1-0.1,2.3-0.1,3.4
		c0,0.9-0.1,1.6-0.1,2.4c0,0.9-0.1,1.9-0.1,2.9c0,1.4,0,2.9,0,4.4c0,0.3,0,0.7,0,1v403.8l243.9-80.9V200.3H972.2z"/>
</g>
<g>
	<path class="st4" d="M332.2,880.6h143.4l24-27.2h234.8l-89.2,27.2l63.4,52.3l-62.9,46.7H332.2V880.6z"/>
	<path class="st5" d="M645.1,863.2l113.3,4.1v112.3H645.7L645.1,863.2z"/>
	<path class="st4" d="M475.6,781.6H619l29.5-33.8l217.1-2.5l-76.5,36.3l56.4,58.2l-56.4,40.8H475.6V781.6z"/>
	<path class="st5" d="M789.1,768.5l112.8-2l-0.1,114.1H789.1V768.5z"/>
	<path class="st4" d="M619,682.6h313.5l79.4,48l-79.4,51h-46.7h-13.6H633.4H619V682.6z"/>
	<path class="st5" d="M1045.2,682.6H932.5v99h112.7V682.6z"/>
	<path class="st6" d="M758.2,880.6H475.6"/>
	<path class="st6" d="M902.2,781.6H618.6"/>
	<path class="st6" d="M1045.2,682.6h-335"/>
</g>
<g>
	<path class="st3" d="M1312.6,791l-9.4,9.4c-15.4,15.4-36.5,8.3-51.9,3.2c-12.2-4.1-21.1-6.7-24.6-3.2s-0.9,12.4,3.2,24.6
		c5.1,15.4,12.2,36.5-3.2,51.9c-15.4,15.4-36.5,8.3-51.9,3.2c-12.2-4.1-21.1-6.7-24.6-3.2s-0.9,12.4,3.2,24.6
		c5.1,15.4,12.2,36.5-3.2,51.9c-15.4,15.4-36.5,8.3-51.9,3.2c-12.2-4.1-21.1-6.7-24.6-3.2l-9.4,9.4l-18.8-18.8l9.4-9.4
		c15.4-15.4,36.5-8.3,51.9-3.2c12.2,4.1,21.1,6.7,24.6,3.2s0.9-12.4-3.2-24.6c-5.1-15.4-12.2-36.5,3.2-51.9
		c15.4-15.4,36.5-8.3,51.9-3.2c12.2,4.1,21.1,6.7,24.6,3.2s0.9-12.4-3.2-24.6c-5.1-15.4-12.2-36.5,3.2-51.9
		c15.4-15.4,36.5-8.3,51.9-3.2c12.2,4.1,21.1,6.7,24.6,3.2l9.4-9.4L1312.6,791z"/>
</g>
<g>
	<path class="st7" d="M155.3,47.9L265,127.6c0.4-0.4,0.6-1.4,0.4-2.2L228,0l-70.7,33.8C156.5,34.1,154.7,47.3,155.3,47.9z"/>
	<path class="st5" d="M264.7,127.7L149.2,70.2c-0.3-0.2-0.5-0.5-0.4-0.9l7.9-35c0.1-0.6,0.8-0.8,1.3-0.4l107.1,93.3
		C265.3,127.5,265,127.9,264.7,127.7z"/>
</g>
<g>
	<path class="st5" d="M61.8,191.7h263.1c34,0,39.5,20.3,39.5,54.4l22.3,233.5v37c0,34-27.6,61.8-61.8,61.8H61.8
		c-34,0-61.8-27.6-61.8-61.8v-36.9l37.8-225.1C37.8,220.4,27.6,191.7,61.8,191.7z"/>
	<path class="st0" d="M61.8,154.8h263.1c34,0,61.8,27.6,61.8,61.8v263.1c0,34-27.6,61.8-61.8,61.8H61.8c-34,0-61.8-27.6-61.8-61.8
		V216.5C0,182.4,27.6,154.8,61.8,154.8z"/>
</g>
<g>
	<path class="st2" d="M191,188.1c-60.7,1.5-108.6,51.8-107.2,112.4c0.8,33,16.5,64.1,42.7,84.2c17,13,26.9,33,27.1,54.3l5.8,12.2
		h64.8l9.6-12.2c0-21.1,9.8-41.1,26.6-54c48.2-36.8,57.5-105.6,20.6-154C259.6,203.2,226.1,187.2,191,188.1z"/>
	<path class="st3" d="M153.5,439.2v28c0,22.2,17.9,40.1,40.1,40.1s40-17.9,40-40.1v-28H153.5z"/>
	<path class="st8" d="M153.5,439h80.3"/>
	<path class="st8" d="M153.5,461.2h80.1"/>
	<path class="st9" d="M180.1,439v-32c0-21.4-8.4-42-23.5-57.2c-11.5-11.5-17.7-26.9-17.7-43.1c0-11.5,9.3-20.6,20.6-20.6
		c11.5,0,20.6,9.3,20.6,20.6v11.9c0,7.3,6,13.3,13.3,13.3s13.3-6,13.3-13.3v-11.9c0-11.5,9.3-20.6,20.6-20.6h0.3
		c11.5,0,20.6,9.3,20.6,20.6c0,16.2-6.4,31.8-17.9,43.3c-15.1,15.3-23.7,35.8-23.7,57.3l0.1,31.8"/>
</g>
<g>
	<path class="st5" d="M259.5,341h244c20,0,36.3,16.3,36.3,36.3v244c0,20-16.3,36.3-36.3,36.3h-244c-20,0-36.3-16.3-36.3-36.3v-244
		C223.2,357.3,239.5,341,259.5,341z"/>
</g>
<g>
	<path class="st5" d="M259,342.8h250.3c19.4,0,35.1,15.7,35.1,35.1V622c0,19.3-15.7,35.1-35.1,35.1H259c-19.4,0-35.1-15.7-35.1-35.1
		V377.8C224,358.5,239.7,342.8,259,342.8z"/>
	<path class="st10" d="M273.6,342.8l58.4,66.6l15.6-66.6"/>
	<path class="st10" d="M253,459.1l79-49.7l43.5,71.9L253,459.1z"/>
	<path class="st10" d="M384.2,342.8l18.8,41.7l-27.5,96.8l137.6,50.6l31.3-50.6"/>
	<path class="st10" d="M453.6,342.8L403,384.5l141.4-6.7"/>
	<path class="st10" d="M375.5,481.3l-70.1,130.5l120.7-31.1L375.5,481.3z"/>
	<path class="st10" d="M223.7,403.1L253,459l-29,22.2"/>
	<path class="st10" d="M223.7,543.1l81.7,68.7l-37.3,45.3"/>
	<path class="st10" d="M314.2,657l-8.9-45.3"/>
	<path class="st10" d="M411.6,657l14.5-76.3l87-48.8l31.3,37.3"/>
	<path class="st10" d="M426.1,580.7l118.3,19.5"/>
	<path class="st3" d="M375.5,492.8c6.4,0,11.5-5.2,11.5-11.5c0-6.4-5.2-11.5-11.5-11.5c-6.4,0-11.5,5.2-11.5,11.5
		S369.1,492.8,375.5,492.8z"/>
	<path class="st3" d="M305.4,623.3c6.4,0,11.5-5.2,11.5-11.5c0-6.4-5.2-11.5-11.5-11.5c-6.4,0-11.5,5.2-11.5,11.5
		C293.8,618.1,299,623.3,305.4,623.3z"/>
	<path class="st3" d="M513.1,543.4c6.4,0,11.5-5.2,11.5-11.5c0-6.4-5.2-11.5-11.5-11.5c-6.4,0-11.5,5.2-11.5,11.5
		S506.7,543.4,513.1,543.4z"/>
	<path class="st3" d="M403,396.1c6.4,0,11.5-5.2,11.5-11.5c0-6.4-5.2-11.5-11.5-11.5c-6.4,0-11.5,5.2-11.5,11.5
		S396.7,396.1,403,396.1z"/>
	<path class="st3" d="M332,420.9c6.4,0,11.5-5.2,11.5-11.5c0-6.4-5.2-11.5-11.5-11.5c-6.4,0-11.5,5.2-11.5,11.5
		C320.5,415.7,325.6,420.9,332,420.9z"/>
	<path class="st3" d="M253,470.6c6.4,0,11.5-5.2,11.5-11.6c0-6.4-5.2-11.5-11.5-11.5c-6.4,0-11.5,5.2-11.5,11.5
		C241.5,465.4,246.6,470.6,253,470.6z"/>
	<path class="st3" d="M426.1,592.2c6.4,0,11.5-5.2,11.5-11.5c0-6.4-5.2-11.5-11.5-11.5c-6.4,0-11.5,5.2-11.5,11.5
		C414.6,587.1,419.7,592.2,426.1,592.2z"/>
</g>
<g>
	<path class="st11" d="M382.8,810.8l-21.9-19l-6.1-55.8c12.1-17.7,26.3-34.5,42.2-50l80.3-8.2l-20.8,68.6
		c-27.2,21.5-43,36.4-43.1,47.9l-0.1,3.6C413,798.1,391.5,804.4,382.8,810.8z"/>
	<path class="st3" d="M338.4,762c5.2-9.2,10.6-17.6,16.4-26c16.8,12.1,21,35.3,9.9,52.8L338.4,762z"/>
	<path class="st11" d="M633.2,872.3l-38.9-34.7c-2.9-21.7-3.4-44.1-1.7-65.9l53.3-67.5l29.5,67.8c-6.1,34.6-8.4,57.4-1.1,64.7
		c0.5,0.5,1,1,1.4,1.4l0.4,0.4c0.3,0.3,0.6,0.5,0.9,0.8l-15.6,33.2L633.2,872.3L633.2,872.3z"/>
	<path class="st3" d="M599.7,867.1c-2.2-9.4-4-19.5-5.4-29.5c18.3,0.5,34.1,12,40.1,29.3L599.7,867.1z"/>
	<path class="st11" d="M578.7,257.1c0.1,2,2.4-69.2,2.4-83.1c0-24.3,10.9-33.5,35.3-34.2c0.9,0,1.8,4.2,2.7,4.2
		c19.9,0,33.8-5.9,42,6.9c4.7,7.3,6.5,20.9,8.1,32.9c0.1,0,7.9,1.6,8.4,5c0.5,3.8-6.1,9-6.4,9.3l0.2,0.7c1.8,10.5,3.7,21.3-2.4,30.3
		c-4.2,6.1-11.6,9.5-20.4,9.5c-3.4,0-7-0.6-10.2-1.6l-0.2,18.1v2.1L578.7,257.1z"/>
	<path class="st12" d="M630.7,232.3c3.1,2,4.4,2.7,7.3,4.4c0.2,0.1,0.3,0.3,0.3,0.5l-0.1,8.6c0,0.6-0.7,0.8-1,0.3l-7.3-13
		C629.6,232.6,630.2,232,630.7,232.3z"/>
	<path class="st5" d="M655.8,185.6c-1.6,0-3-1.3-3-3c0-1.6,1.3-3,3-3c1.6,0,3,1.3,3,3C658.8,184.2,657.4,185.6,655.8,185.6z"/>
	<path class="st13" d="M559.9,423.4l-23.1-142.8c2.6-4.5,5.6-8.5,8.8-11.9c12-13.1,32.2-13.1,32.4-13.1h59.7c0,0,1.3,0,2.3,0
		c5.2,0,18.2,0.4,28.2,3.6l3.9,109.2l-9.2,55.1L559.9,423.4z"/>
	<path class="st14" d="M634.8,423l27.6-85.9l10,31.2l-9.2,54.7L634.8,423L634.8,423z"/>
	<path class="st11" d="M546.9,438.2c-14.7-2.4-42.5-14.5-42.5-42.6c0-29.5,14-85.2,32.7-115.5l23,142.8L546.9,438.2z"/>
	<path class="st0" d="M663.2,422.8l-81.1,0.1h-21.9c-36.7,31.9-48.5,84.9-57.6,136.5c-7.2,40.8-10.1,57.6-62.7,92
		c-15.3,10-29.7,21.6-42.9,34.6l20.7,21l43.7-17.8L437.2,727l19,19.6c4.5-3.4,9.1-7.1,14.1-10.8c17.4-13.6,37.2-29.1,57.5-46.8
		c27.8-24.2,50.3-64.7,67.1-104.8c2,4.5,3.8,9,5.5,13.5c15.2,42.4,13.1,62.8-3,139.5c-2.4,11.8-3.9,23.4-4.8,34.4l30.5,0.1
		l20.8-44.3l5.1,44.4h26.3c1.4-8.3,3-17,4.7-26.3c5.5-30.1,11.7-64.2,15.6-101.1C705.5,549.9,663.7,424.1,663.2,422.8z"/>
	<path class="st15" d="M661.1,150.5c-8.2-12.7-21.8-18.9-41.8-18.9c-0.9,0-1.8,0-2.7,0c-7.5,0.2-14.1,1.9-19.8,5
		c-0.9,1,4-4.9,5.7-7.8c8.8-16.9,2.3-37.7-14.6-46.5c-16.9-8.8-37.7-2.3-46.5,14.6s-2.3,37.7,14.6,46.5c10.2,5.4,31.9-0.1,31.3,0.3
		c-7.2,7.4-11.3,17.7-11.3,29.9c0,3.2,0.2,9,0.3,16.3l0.2,6.5c-6.3-1.6-16.1-3.5-27.2-3.5c-19.3,0-35.1,5.6-46.7,16.6
		c-15.9,15-24.7,32.2-26.3,51c-1.3,14.8,2.4,25.9,4,28.9c-5.9,3.4-10.7,10.9-13.5,20.6c-2.9,10.1-3,21.1-0.4,30.9
		c3.4,12.8,15.1,34.5,53.4,34.5c35.8,0,55.7-17.2,66.1-31.8c18.3-25.4,19.5-57.2,12.7-77.6c20.8-16.9,17.3-48.3,17.2-48.6
		c-0.2-0.1-16.8-10.2-18.7-22.7c-0.7-4.9,0.8-9.4,4.6-13.6c2.4-2.5,5.4-3.8,8.9-3.8c8.1,0,16.8,6.8,19.3,8.9c0,0.1,0.1,0.1,0.1,0.1
		c7.5-4.8,11.1-13.8,13.6-20.6c0,0,4.6,0.8,8.8,0.8c8.7,0,13.5-3.4,13.5-3.5C664.8,158.2,663.2,154.2,661.1,150.5z"/>
	<path class="st11" d="M738.4,415c-33.7,0-65.9-46.2-66.2-46.6c-0.2-0.3-23.3-31.3-21.2-67.8c1-18.8,5.7-29.1,9.4-34.4
		s7.2-6.9,7.8-7.1c0.1,0,0.1,0,0.2,0c18,6,33.2,25.5,37.4,31.4c13.1,18,29.8,43.6,32,47.1c0.1,0.2,0.4,0.2,0.5,0
		c3.6-6,46.1-74.1,61.4-86.6c3.1-2.5,5.7-3.8,7.8-3.8c3.1,0,4.1,3.1,4.3,4.4c0,0.2,0.3,0.3,0.5,0.2c2.9-2.3,21.1-16,28.2-16
		c0.2,0,0.4,0,0.6,0c4.2,0.6,4.9,3.5,5.1,4.8c0,0.2,0.2,0.3,0.4,0.2c0.7-0.3,2.4-0.8,4.1-0.8c2,0,3.5,0.6,4.5,1.9c3,4,0,8.1,0,8.2
		h0.1c0.1,0,0.2,0.1,0.4,0.1c1.4,0.7,2.5,2,3,3.5s0.3,3-0.4,4.4c-2.4,5.9-16.9,17.4-21.6,21c-0.3,0.2,0,0.6,0.3,0.5
		c4.5-1.5,16-5.2,21-5.2c1.3,0,2.1,0.2,2.4,0.7c0.7,1,1,2,0.7,3.2c-0.7,3-5,6.6-11.8,10c-8,4-15,8.5-17.2,11.1c-1,1.2-2,2.4-3,3.6
		c-5,6.1-9.6,11.7-17,13.6c-0.1,0-0.2,0.1-0.2,0.2c-0.5,2.2-7,25.4-18.4,48.2c-11.1,22.2-29.3,48.8-53.4,49.6c-0.5,0-0.6,0-1,0
		L738.4,415z"/>
	<path class="st3" d="M661.4,867.3c1.1-10.9,6.8-21.4,15.6-28.2c3.7,3.3,8.1,6.3,12,9.3c7.8,5.8,15.1,11.3,19.6,18.4l-0.5,2.1
		L661.4,867.3z"/>
	<path class="st3" d="M383.2,807.7c8.6-6.3,18.7-9.7,29.2-9.7h0.8c0.3,5.1,0.9,10.1,1.7,15.4c1.3,9.7,2.6,18.8,0.6,27l-0.5,0.9
		L383.2,807.7z"/>
	<path class="st16" d="M653,202.6c1.7,2.2,4.5,3.4,7.4,3"/>
	<path class="st16" d="M611.7,195.3l7.4,5.8"/>
	<path class="st16" d="M627.3,230.2c3.3,2.1,7.8,4.8,11,6.7"/>
	<path class="st17" d="M568.6,505.4c4.3,35.2,15.9,54.7,26.3,78.8"/>
	<path class="st16" d="M554,389.6l-11.1,3"/>
	<path class="st16" d="M738.1,338.1V355"/>
	<path class="st16" d="M846.2,241c0,0-21.2,13-35.4,24.2"/>
	<path class="st16" d="M855.3,249c0,0-19.7,15.7-33.9,26.8"/>
	<path class="st16" d="M812,251.8c-3.9,2.8-8.8,5.1-12.3,8.3"/>
	<path class="st17" d="M560,422.9h103.2"/>
	<path class="st18" d="M603.5,881.1c-0.1-0.1-1.7-5.3-3.8-14.2l108.9-0.1c2.7,4.2,4.2,9.2,4.2,14.3H603.5z"/>
	<path class="st19" d="M408.3,853l-76.4-78c0-0.1,2.2-5.1,6.7-13.1l77.1,78.5C414.4,845.1,411.9,849.4,408.3,853z"/>
</g>
<g>
	<path class="st2" d="M41.8,679.2l15.6,80.1c0.8,0.2,1.3,0.2,1.9,0.2L226,741.2c1.2-0.1,1.4-1.9,0.2-2.3L44.9,678.5
		C43.7,678.1,42.1,677.8,41.8,679.2z"/>
	<path class="st5" d="M41.9,679l-16.7,69.6l32.2,10.7c0.4,0.1,0.7-0.2,0.7-0.6L42.5,679C42.4,678.7,41.9,678.7,41.9,679z"/>
</g>
<g>
	<path class="st7" d="M148.1,802.6l57.1,108c0.9,0.7,3.1,0.7,3.6-0.1l116.9-176.8c0.3-0.5-0.2-1.1-0.7-0.9l-175.5,66
		C148.7,799,147,800.8,148.1,802.6z"/>
	<path class="st5" d="M148.9,801l57.4,108.6c0.4,0.7-0.4,1.5-1.1,1l-68.5-43.7l11-65.7C147.8,800.6,148.6,800.4,148.9,801z"/>
</g>
<g>
	<path class="st5" d="M1215.3,519.4l-144-25.2l56.6,134.5l14.9-37.4l43.3,34.5l39.3-49.2l-43.3-34.5L1215.3,519.4z"/>
</g>
</svg>
