<?xml version="1.0" encoding="utf-8"?>
<!-- Generator: Adobe Illustrator 26.4.1, SVG Export Plug-In . SVG Version: 6.00 Build 0)  -->
<svg version="1.1" id="Layer_1" xmlns="http://www.w3.org/2000/svg" xmlns:xlink="http://www.w3.org/1999/xlink" x="0px" y="0px"
	 viewBox="0 0 733.7 832" style="enable-background:new 0 0 733.7 832;" xml:space="preserve">
<style type="text/css">
	.st0{fill:#FFFFFF;}
</style>
<path d="M0,0l66,746.6L366.8,832l299.6-85.4L733.7,0H0z M610.9,700.6l-244.1,69.6l-245.2-69.6L64.9,59.4h603.8L610.9,700.6z"/>
<path class="st0" d="M64.9,59.4l56.7,641.2l245.2,69.6l244.1-69.6l57.8-641.2L64.9,59.4L64.9,59.4z M595.3,177.3l-4.8,47.2
	l-1.7,19.5H236.7l8.2,94.2H366V338h214.7l-3.2,24.3l-21.2,242.2l-1.7,16.3l-187.7,51.7v0.4h-1.7l-188.6-52l-11.3-144.7h91l6.5,73.2
	l102.4,27.7h0.8v-0.2l102.4-27.7l11.4-118.5H366.9v0.1H160.4l-22.7-253.5L136,153h461L595.3,177.3L595.3,177.3z"/>
<path d="M136,153l1.7,24.3l22.7,253.5h206.5v-0.1h112.9l-11.4,118.5L366,576.9v0.2h-0.8l-102.4-27.7l-6.5-73.2h-91l11.3,144.7
	l188.6,52h1.7v-0.4l187.7-51.7l1.7-16.3l21.2-242.2l3.2-24.3H366v0.2H244.9l-8.2-94.2h352.1l1.7-19.5l4.8-47.2L597,153H366H136z"/>
</svg>
