<?xml version="1.0" encoding="utf-8"?>
<!-- Generator: Adobe Illustrator 26.4.1, SVG Export Plug-In . SVG Version: 6.00 Build 0)  -->
<svg version="1.1" id="Layer_1" xmlns="http://www.w3.org/2000/svg" xmlns:xlink="http://www.w3.org/1999/xlink" x="0px"
	y="0px" viewBox="0 0 20 20" style="enable-background:new 0 0 20 20;" xml:space="preserve">
	<style type="text/css">
		.st0 {
			fill-rule: evenodd;
			clip-rule: evenodd;
			fill: #FFFFFF;
		}
	</style>
	<path class="st0"
		d="M15.3,18.4c-1.7,0-2.9-0.8-3.4-1.9l1.5-0.9c0.4,0.7,0.9,1.1,1.9,1.1c0.8,0,1.3-0.4,1.3-0.9
	c0-0.8-1.1-1.1-1.8-1.4c-1.4-0.6-2.3-1.3-2.3-2.8c0-1.4,1.1-2.5,2.8-2.5c1.2,0,2.1,0.4,2.7,1.5l-1.5,0.9c-0.3-0.6-0.7-0.8-1.2-0.8
	c-0.6,0-0.9,0.3-0.9,0.8c0,0.6,0.3,0.8,1.2,1.1c1.7,0.7,3,1.3,3,3.2C18.4,17.5,17.1,18.4,15.3,18.4z M11,15.6c0,1.9-1.2,3-2.9,3
	c-1.5,0-2.4-0.6-2.8-1.6h0l1.5-1.1c0.3,0.5,0.6,0.9,1.2,0.9c0.6,0,1-0.3,1-1.3V9h2C11,9,11,15.6,11,15.6z M0,20h20V0H0V20z" />
</svg>