<?xml version="1.0" encoding="utf-8"?>
<!-- Generator: Adobe Illustrator 26.4.1, SVG Export Plug-In . SVG Version: 6.00 Build 0)  -->
<svg version="1.1" id="Layer_1" xmlns="http://www.w3.org/2000/svg" xmlns:xlink="http://www.w3.org/1999/xlink" x="0px" y="0px"
	 viewBox="0 0 2500 1074" style="enable-background:new 0 0 2500 1074;" xml:space="preserve">
<style type="text/css">
	.st0{filter:url(#Adobe_OpacityMaskFilter);}
	.st1{fill-rule:evenodd;clip-rule:evenodd;fill:#FFFFFF;}
	.st2{mask:url(#d_00000007409914381403308390000001225973660342307733_);fill-rule:evenodd;clip-rule:evenodd;fill:#FFFFFF;}
	.st3{filter:url(#Adobe_OpacityMaskFilter_00000005239582018963822230000006668803526594433956_);}
	.st4{mask:url(#d_00000019658953796000703800000008903557976810287774_);fill-rule:evenodd;clip-rule:evenodd;fill:#FFFFFF;}
</style>
<g transform="translate(16)">
	<defs>
		<filter id="Adobe_OpacityMaskFilter" filterUnits="userSpaceOnUse" x="573.1" y="4.8" width="1910.6" height="1069.2">
			<feColorMatrix  type="matrix" values="1 0 0 0 0  0 1 0 0 0  0 0 1 0 0  0 0 0 1 0"/>
		</filter>
	</defs>
	
		<mask maskUnits="userSpaceOnUse" x="573.1" y="4.8" width="1910.6" height="1069.2" id="d_00000007409914381403308390000001225973660342307733_">
		<g class="st0">
			<path id="c_00000017481537080633825400000014807394023638831488_" class="st1" d="M-15.2,4.8h2498.9V1074H-15.2"/>
		</g>
	</mask>
	<path class="st2" d="M2377,394.7c0-80,12.3-127.2,12.3-213.4c0-133.4-49.3-176.5-158-176.5h-80v94.4h24.6
		c55.4,0,67.7,18.5,67.7,86.2c0,63.6-6.2,127.2-6.2,201.1c0,94.4,30.8,131.3,92.3,145.7v6.2c-61.6,14.4-92.3,51.3-92.3,145.7
		c0,73.9,6.2,133.4,6.2,201.1c0,69.8-14.4,88.2-67.7,88.2v2.1h-24.6v98.5h80c108.8,0,158-43.1,158-176.5
		c0-88.2-12.3-133.4-12.3-213.4c0-43.1,26.7-88.2,106.7-92.3V485C2403.7,483,2377,437.8,2377,394.7 M1467.9,519.9
		c-63.6-24.6-121.1-39-121.1-80c0-30.8,24.6-49.2,69.8-49.2s86.2,18.5,131.3,51.3l82.1-108.8c-51.3-39-121.1-80-215.5-80
		c-139.5,0-233.9,80-233.9,192.9c0,100.6,88.2,151.9,162.1,180.6c63.6,24.6,125.2,45.1,125.2,86.2c0,30.8-24.6,51.3-80,51.3
		c-51.3,0-102.6-20.5-158-63.6l-80,119c61.6,51.3,156,86.2,233.9,86.2c164.2,0,252.4-86.2,252.4-199.1S1548,546.6,1467.9,519.9
		 M1964.6,519.9c-61.6-24.6-119-39-119-80c0-30.8,24.6-49.2,69.8-49.2s86.2,18.5,131.3,51.3l82.1-108.8c-51.3-39-121.1-80-215.5-80
		c-139.6,0-233.9,80-233.9,192.9c0,100.6,88.2,151.9,162.1,180.6c63.6,24.6,125.2,45.1,125.2,86.2c0,30.8-24.6,51.3-80,51.3
		c-51.3,0-102.6-20.5-158-63.6l-82.1,119c61.6,51.3,156,86.2,233.9,86.2c164.2,0,252.4-86.2,252.4-199.1S2044.6,546.6,1964.6,519.9
		 M745.6,509.7c12.3-82.1,61.6-121.1,119-121.1c73.9,0,102.6,51.3,102.6,121.1L745.6,509.7L745.6,509.7z M1123.2,546.6
		c2.1-166.2-88.2-295.5-260.6-295.5c-149.8,0-293.4,125.2-289.3,322.2c0,203.2,133.4,322.2,309.9,322.2c73.9,0,156-26.7,219.6-69.8
		l-61.6-108.8c-45.1,26.7-88.2,39-133.4,39c-82.1,0-145.7-39-162.1-133.4H1117C1119.1,608.2,1123.2,579.4,1123.2,546.6L1123.2,546.6
		z"/>
	<defs>
		
			<filter id="Adobe_OpacityMaskFilter_00000001623383446280831020000005529215091576039050_" filterUnits="userSpaceOnUse" x="-15.7" y="4.8" width="623.8" height="1065.1">
			<feColorMatrix  type="matrix" values="1 0 0 0 0  0 1 0 0 0  0 0 1 0 0  0 0 0 1 0"/>
		</filter>
	</defs>
	
		<mask maskUnits="userSpaceOnUse" x="-15.7" y="4.8" width="623.8" height="1065.1" id="d_00000019658953796000703800000008903557976810287774_">
		<g style="filter:url(#Adobe_OpacityMaskFilter_00000001623383446280831020000005529215091576039050_);">
			<path id="c_00000065072543770195162550000011031544087885082779_" class="st1" d="M-15.2,4.8h2498.9V1074H-15.2"/>
		</g>
	</mask>
	<path class="st4" d="M563,751.8c-14.4,0-32.8-12.3-32.8-51.3V4.8H238.7C127.9,4.8,78.6,47.9,78.6,181.3
		c0,88.2,12.3,137.5,12.3,213.4c0,43.1-26.7,88.2-106.7,92.3v106.7C64.3,595.9,91,641,91,684.1c0,75.9-12.3,121.1-12.3,209.3
		c0,133.4,49.3,176.5,158,176.5h80v-94.4h-24.6c-51.3,0-67.7-20.5-67.7-88.2s6.2-125.2,6.2-201.1c0-94.4-30.8-131.3-92.4-145.7v-6.2
		c61.6-14.4,92.4-51.3,92.4-145.7c0-73.9-6.2-133.4-6.2-201.1s14.4-86.2,67.7-86.2h55.4v589c0,125.2,43.1,207.3,168.3,207.3
		c39,0,69.8-6.2,92.3-14.4l-20.5-133.4C575.3,751.8,569.1,751.8,563,751.8"/>
</g>
</svg>
