<?xml version="1.0" encoding="utf-8"?>
<!-- Generator: Adobe Illustrator 26.4.1, SVG Export Plug-In . SVG Version: 6.00 Build 0)  -->
<svg version="1.1" id="Layer_1" xmlns="http://www.w3.org/2000/svg" xmlns:xlink="http://www.w3.org/1999/xlink" x="0px" y="0px"
	 viewBox="0 0 256 208" style="enable-background:new 0 0 256 208;" xml:space="preserve">
<style type="text/css">
	.st0{fill:#949494;}
	.st1{fill:#FFFFFF;}
	.st2{fill:#BCBCBC;}
</style>
<g>
	<path class="st0" d="M15.6,35v87.5l15.1-8.5V43.5L15.6,35z"/>
	<path class="st1" d="M0.6,114.1V8.7L90,59.5v17.9L15.6,35v87.5L0.6,114.1z"/>
	<path class="st0" d="M181.3,8.7v105.4L121,148l-15.1-9.4l60.2-33.9V34.1L90,77.4V59.5L181.3,8.7z"/>
	<path class="st2" d="M166.2,0.2L90.9,42.5L15.6,0.2L0.6,8.7L90,59.5l91.3-50.8L166.2,0.2z"/>
	<path class="st1" d="M151.2,42.5v53.6l15.1,8.5V34.1L151.2,42.5z"/>
	<path class="st2" d="M75.9,138.5l75.3-42.4l15.1,8.5L106,138.5l59.3,33.9l60.2-33.9l15.1,8.5l-75.3,42.4L75.9,138.5z"/>
	<path class="st1" d="M75.9,138.5v17.9l89.4,50.8v-17.9L75.9,138.5z"/>
	<path class="st1" d="M240.6,147V94.3l-15.1-8.5v52.7L240.6,147z"/>
	<path class="st0" d="M165.3,189.4l75.3-42.4V94.3l15.1-8.5v70.6l-90.4,50.8V189.4z"/>
	<path class="st2" d="M255.6,85.8l-15.1,8.5l-15.1-8.5l15.1-8.5L255.6,85.8z"/>
	<path class="st0" d="M240.6,77.4V59.5l15.1-8.5v17.9L240.6,77.4z"/>
	<path class="st1" d="M240.6,59.5v17.9l-15.1-8.5V51L240.6,59.5z"/>
	<path class="st2" d="M255.6,51l-15.1,8.5L225.5,51l15.1-8.5L255.6,51z"/>
</g>
</svg>
