<?xml version="1.0" encoding="utf-8"?>
<!-- Generator: Adobe Illustrator 26.4.1, SVG Export Plug-In . SVG Version: 6.00 Build 0)  -->
<svg version="1.1" id="Layer_1" xmlns="http://www.w3.org/2000/svg" xmlns:xlink="http://www.w3.org/1999/xlink" x="0px" y="0px"
	 viewBox="0 0 1966 704.8" style="enable-background:new 0 0 1966 704.8;" xml:space="preserve">
<style type="text/css">
	.st0{fill:#FFFFFF;}
</style>
<path class="st0" d="M1323.1,0c-1.8,0-3.7,0.5-5.3,1.4c-3.2,1.9-5.3,5.4-5.3,9.1v268.8c0,2.6-1.2,5-3.5,6.3c-2.3,1.3-5.1,1.3-7.4,0
	l-43.9-25.3c-6.5-3.8-14.6-3.8-21.1,0l-175.3,101.2c-6.6,3.8-10.5,11.1-10.5,18.6v202.4c0,7.6,4,14.5,10.5,18.3l175.3,101.2
	c6.5,3.8,14.6,3.8,21.1,0L1433,600.7c6.5-3.8,10.6-10.7,10.5-18.3V78c0-7.7-4.2-14.8-10.9-18.6L1328.3,1.1
	C1326.7,0.1,1324.9,0,1323.1,0L1323.1,0z M195.3,252.6c-3.3,0.1-6.5,0.7-9.5,2.5L10.5,356.2C4,360,0,367,0,374.5l0.4,271.6
	c0,3.8,1.9,7.3,5.3,9.1c3.2,1.9,7.3,1.9,10.5,0l104-59.7c6.6-3.9,10.9-10.7,10.9-18.3V450.4c0-7.6,4-14.5,10.5-18.3l44.3-25.6
	c3.2-1.9,6.8-2.8,10.5-2.8c3.6,0,7.3,0.9,10.5,2.8l44.3,25.6c6.5,3.8,10.6,10.7,10.5,18.3v126.8c0,7.5,4.3,14.4,10.9,18.3l104,59.7
	c3.2,1.9,7.3,1.9,10.5,0c3.3-1.9,5.3-5.4,5.3-9.1l0.3-271.6c0-7.5-4-14.5-10.5-18.3L206.9,255.1c-3-1.7-6.1-2.3-9.5-2.5H195.3z
	 M1770.6,255.1c-3.7,0-7.3,0.9-10.5,2.8L1584.8,359c-6.5,3.8-10.6,10.7-10.5,18.3v202.4c0,7.6,4.3,14.5,10.9,18.3L1759,697
	c6.4,3.7,14.3,3.9,20.7,0.3l105.4-58.7c3.3-1.9,5.6-5.3,5.6-9.1c0-3.8-2-7.3-5.3-9.1l-176.4-101.2c-3.3-1.9-5.6-5.7-5.6-9.5v-63.2
	c0-3.8,2.3-7.3,5.6-9.1l54.8-31.6c3.3-1.9,7.3-1.9,10.5,0l54.8,31.6c3.3,1.9,5.3,5.4,5.3,9.1v49.9c0,3.8,2,7.3,5.3,9.1
	c3.3,1.9,7.3,1.9,10.5,0l105-61.1c6.5-3.8,10.5-10.7,10.5-18.3v-48.8c0-7.5-4-14.5-10.5-18.3l-174.3-101.2
	C1778,256,1774.3,255,1770.6,255.1L1770.6,255.1z M1246.5,406.1c0.9,0,2,0.2,2.8,0.7l60.1,34.8c1.6,0.9,2.8,2.7,2.8,4.6v69.6
	c0,1.9-1.2,3.6-2.8,4.6l-60.1,34.8c-1.6,0.9-3.6,0.9-5.3,0l-60.1-34.8c-1.6-0.9-2.8-2.7-2.8-4.6v-69.6c0-1.9,1.2-3.6,2.8-4.6
	l60.1-34.8C1244.7,406.4,1245.6,406.1,1246.5,406.1L1246.5,406.1L1246.5,406.1z"/>
<path class="st0" d="M722,254c-3.7,0-7.3,0.9-10.5,2.8L536.1,357.6c-6.6,3.8-10.5,11.1-10.5,18.6v202.4c0,7.6,4,14.5,10.5,18.3
	l175.3,101.2c6.5,3.8,14.6,3.8,21.1,0l175.3-101.2c6.5-3.8,10.6-10.7,10.5-18.3V376.3c0-7.6-4-14.8-10.5-18.6L732.5,256.8
	C729.3,255,725.7,254,722,254L722,254z M1770.3,434.6c-0.7,0-1.5,0-2.1,0.4l-33.7,19.7c-1.3,0.7-2.1,2.1-2.1,3.5v38.6
	c0,1.5,0.8,2.8,2.1,3.5l33.7,19.3c1.3,0.7,2.6,0.7,3.9,0l33.7-19.3c1.3-0.7,2.1-2,2.1-3.5v-38.6c0-1.5-0.8-2.8-2.1-3.5l-33.7-19.7
	C1771.4,434.6,1771,434.6,1770.3,434.6L1770.3,434.6z"/>
</svg>
