<?xml version="1.0" encoding="UTF-8"?><svg id="Layer_2" xmlns="http://www.w3.org/2000/svg" viewBox="0 0 1098.73 951.42"><path d="M1071.09,575.54H0v-26.89H1071.09v26.89Z" style="fill:#2c595b;"/><g><path d="M612.55,548.64l13.62-77.4,85.1-.02-11.06,62.74c-.71,4.13-2.86,7.86-6.06,10.57-3.21,2.69-7.27,4.15-11.46,4.11h-70.14Z" style="fill:#ff326c;"/><path d="M620.27,505.12l5.98-33.88,85.11-.02-9.85,55.99-81.24-22.09Z" style="fill:#1d090f; isolation:isolate; opacity:.3;"/><path d="M538.67,500.42c-4.28,.11-8.53-.72-12.44-2.44-3.9-1.73-7.39-4.31-10.18-7.55-2.77-3.41-4.75-7.4-5.79-11.68-1.03-4.28-1.1-8.75-.2-13.06l28.39-160.94c3.38-19.15,21.7-34.71,40.83-34.71h244.14c4.28-.12,8.53,.71,12.44,2.44,3.9,1.72,7.39,4.29,10.18,7.54,2.77,3.42,4.75,7.41,5.79,11.69,1.03,4.28,1.09,8.73,.2,13.04l-28.39,160.95c-3.4,19.15-21.72,34.72-40.83,34.72h-244.14Z" style="fill:#ff326c;"/><path d="M534.99,433.01l22.27-126.19c.94-4.72,3.46-9,7.13-12.12,3.68-3.13,8.29-4.92,13.1-5.1h240.86c2.13-.07,4.25,.35,6.19,1.21,1.95,.87,3.67,2.15,5.06,3.76,1.39,1.69,2.35,3.67,2.87,5.8,.51,2.11,.55,4.31,.11,6.46l-22.3,126.18h-275.29Z" style="fill:#f7e5ea;"/><path d="M664.13,480.89c-1.79,.07-3.59-.27-5.24-.99-1.65-.71-3.12-1.8-4.3-3.15-1.17-1.35-2.03-2.96-2.5-4.7-.5-1.74-.56-3.55-.24-5.33,.68-4.21,2.81-8.05,6-10.88,3.2-2.82,7.28-4.45,11.56-4.6,1.72-.03,3.45,.29,5.05,.95,1.61,.68,3.05,1.67,4.25,2.94,5.06,5.52,3.81,14.9-2.79,20.94-3.2,3-7.39,4.72-11.79,4.82h0Z" style="fill:#1d090f;"/><path d="M620.83,500.53h85.08" style="fill:none; stroke:#1d090f; stroke-linecap:round; stroke-linejoin:round; stroke-width:4px;"/><path d="M615.09,534.74h85.09" style="fill:none; stroke:#1d090f; stroke-linecap:round; stroke-linejoin:round; stroke-width:4px;"/><path d="M582.95,548.64l.15-.69c.68-3.82,2.69-7.29,5.67-9.78,2.98-2.5,6.73-3.87,10.62-3.87h100.79c-.71,4.02-2.81,7.66-5.94,10.28s-7.09,4.06-11.17,4.06h-100.12Z" style="fill:#ff326c;"/></g><g><path d="M658.23,327.55h65.46c2.69,0,5.26,.53,7.58,1.56,2.31,1.03,4.31,2.54,5.89,4.45,1.57,1.9,2.7,4.16,3.3,6.65,.6,2.49,.67,5.16,.21,7.85l-4.62,26.91c-.46,2.69-1.45,5.36-2.9,7.85-1.46,2.49-3.36,4.75-5.59,6.65-2.23,1.91-4.75,3.42-7.42,4.45-2.67,1.03-5.42,1.56-8.11,1.55h-65.46c-2.69,.01-5.27-.52-7.58-1.55s-4.31-2.54-5.89-4.45c-1.58-1.9-2.7-4.16-3.3-6.65s-.68-5.16-.21-7.85l4.61-26.91c.47-2.69,1.46-5.36,2.91-7.85,1.46-2.49,3.36-4.75,5.59-6.65,2.23-1.91,4.75-3.42,7.42-4.45,2.66-1.03,5.42-1.56,8.11-1.56Z" style="fill:#61cdff;"/><path d="M667.07,376.2l-14.39-14.49,19.36-14.42" style="fill:none; stroke:#fff; stroke-linecap:round; stroke-linejoin:round; stroke-width:4px;"/><path d="M703.03,347.29l14.41,14.42-19.37,14.49" style="fill:none; stroke:#fff; stroke-linecap:round; stroke-linejoin:round; stroke-width:4px;"/><path d="M692.55,346.37l-14.9,30.22" style="fill:none; stroke:#fff; stroke-linecap:round; stroke-linejoin:round; stroke-width:4px;"/></g><g><path d="M650.24,920.82s-15.14-19.14-27.22-37.15c-8.39-12.48-15.45-28.34-16.68-46.97-.61-8.39-.92-18.21-1.12-26.91,0-.51-10.13-4.81-10.13-5.32l-102.85,5.22c3.89,52.6,16.58,95.47,25.38,119.83l142.35,8.8c-2.56-4.3-9.73-17.5-9.73-17.5Z" style="fill:#f2ccba;"/><path d="M588.23,929.52l78.59,.41c.1,0,.21-.31,.1-.41-2.55-4.2-6.34-8.7-11.56-12.59-5.32-3.99-20.36-15.35-32.34-33.15,0,0-.1-.11-.1,0-18.62,7.77-32.23,24.96-34.69,45.74,0,0-.1-.1,0,0Z" style="fill:#61cdff;"/><path d="M563.87,597.96c-37.45-24.56-183.89-57.11-183.89-57.11h-113.69l-9.21,56.39c-8.19,50.35,30.8,95.89,81.97,95.89l141.63,.1c-9.01,41.44,9.1,81.25,11.66,116.46l112.88,.1c-1.84-84.84,10.03-178.17-41.35-211.83Z" style="fill:#30f6ff;"/><path d="M567.35,856.35c0-57.31,27.12-125.05,20.78-169.46l-45.64,27.63c-29.78,67.02-7.17,175.29,2.66,215h54.44c-12.28-12.28-32.24-48.1-32.24-73.17Z" style="fill:#36afb5; isolation:isolate; opacity:.2;"/><path d="M666.92,929.52h-149.2c-.1,0-.1,.1-.1,.1,4.71,13.3,8.39,20.98,8.7,21.7,0,0,0,.1,.1,.1h145.83q.1,0,.1-.1c.2-1.03,1.12-10.95-5.43-21.8Z" style="fill:#1f2b30;"/><path d="M580.86,913.86c-10.54-7.98-15.35-17.19-20.77-24.35-9.72-12.9-11.98-25.28-9.93-38.79,.82-5.22,3.58-15.14,7.27-27.32,1.33-4.3,2.86-9.01,4.3-13.82l-54.65-3.68-51.78,3.58c-.51,5.53-1.03,11.16-1.43,16.68,0,0-1.03,38.17,.92,58.33,1.43,14.74,7.26,25.79,10.84,41.04l39.2,3.99,29.98,11.56,57.41-.61c-.51-8.09,1.54-14.23-11.36-26.61Z" style="fill:#f2ccba;"/><path d="M584.96,738.97c4.5-14.63,10.54-36.33,12.68-44.82,7.78-32.13,21.9-91.59-50.75-119.53-70.92-25.78-155.35-34.07-155.35-34.07l-69.79-4.81-64.57,4.81c-15.66,46.87-46.56,152.58,53.62,152.58h28.25c84.73,0,141.63,.1,141.63,.1,0,0-3.48,9.11-7.88,24.87-1.74,6.03-3.58,12.99-5.53,20.87-5.73,23.23-9.72,46.77-11.97,70.51l106.43,.1c7.16-21.9,16.16-48.4,23.23-70.61Z" style="fill:#30f6ff;"/><path d="M599.59,929.62c.1,0,.2-.1,.1-.2-4.19-6.76-9.82-12.9-16.17-17.61-10.44-7.88-18.01-15.24-23.33-22.2h-.1c-13.51,8.7-22.82,23.64-25.18,40.32,0,.2,.11,.41,.31,.41l34.08,4.09,30.29-4.81Z" style="fill:#61cdff;"/><path d="M462.26,929.52h42.47c.1,0,.1-.1,.1-.1-4.71-24.05-25.07-42.57-49.94-44.93q-.1,0-.1,.1c1.43,14.74,3.78,29.68,7.47,44.93q-.11,0,0,0Z" style="fill:#61cdff;"/><path d="M473,717.99l42.37-24.56c.1-.1,.1-.2-.1-.2h-34.59s-.11,0-.11,.1c-.4,1.03-3.37,9.21-7.87,24.56,.1,0,.2,.1,.3,.1Z" style="fill:#36afb5; isolation:isolate; opacity:.2;"/><path d="M606.55,949.37c-.21-2.97-1.13-10.33-6.76-19.95-4.19-6.86-9.82-12.9-16.27-17.71-29.67-22.41-36.53-40.11-33.36-61.09,.82-5.22,3.58-15.15,7.27-27.32,1.33-4.3,2.86-9.01,4.3-13.82,7.06-22,15.96-48.4,23.02-70.51,4.5-14.63,10.54-36.33,12.69-44.82,1.43-5.63,2.97-12.18,4.09-19.14" style="fill:none; stroke:#36afb5; stroke-linecap:round; stroke-linejoin:round; stroke-width:4px;"/><path d="M515.37,693.43l-34.69-.2" style="fill:none; stroke:#36afb5; stroke-linecap:round; stroke-linejoin:round; stroke-width:4px;"/><path d="M285.01,235.8c-2.45,17.29-4.8,99.57-4.8,99.57l68.05-1.64,4.09-10.13v-5.63c7.88,3.79,28.86,6.65,38.38-3.68,9.41-10.13,8.59-21.7,6.85-33.06-.1-.41,.1-.92,.51-1.12,2.15-1.33,9.01-5.94,8.91-10.03-.11-3.68-7.37-6.75-9.21-7.47-.21-.1-.41-.31-.41-.61,.1-9.32,0-18.83-.92-27.02-.62-5.94-1.74-11.16-3.59-15.25-8.18-17.4-24.76-25.07-52.49-27.94-31.83-3.47-53.63,28.86-55.37,44.01Z" style="fill:#f2ccba;"/><path d="M625.68,392.06c5.53-6.55-1.22-10.33-1.84-10.74v-.11c4.5-11.15-6.96-10.74-7.88-10.64,0,0-.1,0-.1-.1-1.94-10.23-35.41,2.05-37.86,2.97q-.11,0-.11-.11c.21-1.33,1.54-10.54-2.96-10.54-4.92,0-17.5,8.8-37.05,25.38-8.9,7.68-40.52,37.25-41.65,38.28v.1l.1,6.04,44.01,38.88,4.81,.51s.1,0,.1-.1l5.83-12.79c.21-.41,.51-.61,.92-.72,23.34-3.68,29.78-25.99,45.13-31.62,15.66-5.83,28.35-10.64,28.35-16.58,0-4.8-18.11-2.86-25.07-1.94-.41,.1-.62-.51-.21-.72,5.73-2.66,20.88-10.02,25.48-15.45Z" style="fill:#f2ccba;"/><path d="M323.49,266.81l6.86,5.01" style="fill:none; stroke:#c28467; stroke-linecap:round; stroke-linejoin:round; stroke-width:4px;"/><path d="M374.25,279.19c1.33,2.56,3.99,4.09,6.86,3.89" style="fill:none; stroke:#c28467; stroke-linecap:round; stroke-linejoin:round; stroke-width:4px;"/><path d="M352.35,317.97c-3.79-2.35-7.78-4.91-11.15-7.26" style="fill:none; stroke:#c28467; stroke-linecap:round; stroke-linejoin:round; stroke-width:4px;"/><path d="M352.35,333.73v-15.76c-2.97-1.33-6.65-4.19-11.15-7.26-.41-.31-.92,.2-.72,.61l11.87,22.41Z" style="fill:#c28467; isolation:isolate; opacity:.25;"/><path d="M567.66,377.94l10.13-4.4" style="fill:none; stroke:#c28467; stroke-linecap:round; stroke-linejoin:round; stroke-width:4px;"/><path d="M615.86,370.57c-21.49,5.83-36.53,11.26-36.53,11.26" style="fill:none; stroke:#c28467; stroke-linecap:round; stroke-linejoin:round; stroke-width:4px;"/><path d="M623.74,381.32c-16.58,3.89-35.71,11.15-35.71,11.15" style="fill:none; stroke:#c28467; stroke-linecap:round; stroke-linejoin:round; stroke-width:4px;"/><path d="M379.26,261.59c1.69,0,3.07-1.38,3.07-3.07s-1.38-3.07-3.07-3.07-3.07,1.38-3.07,3.07,1.38,3.07,3.07,3.07Z" style="fill:#0b0c0c;"/><path d="M463.79,457.35c-1.53-3.38-31.41-72.55-48.2-94.66-19.03-24.97-58.94-26.3-62.83-26.4-.2,0-.31-.1-.31-.31v-12.38h-72.96l.51,17.09s-47.89,28.04-36.63,103.77c10.43,70.61,13.91,96.09,13.91,96.09h134.37l3.89-36.94c0-.11,.2-.11,.2,0,2.25,4.7,28.24,57.2,69.48,54.85,30.4-1.85,48.31-30.29,64.07-58.03l-25.38-34.79-30.6-17.19c-5.53,5.01-8.9,8.29-9.52,8.9Z" style="fill:#61cdff;"/><path d="M391.54,540.55l3.89-37.35-26.81-50.25c-.31-.61-1.23-.41-1.23,.31l-2.66,87.39,26.81-.1Z" style="fill:#182227; isolation:isolate; opacity:.25;"/><path d="M496.23,426.55c-5.01,4.6-9.72,9.21-13.92,13.3-3.47,3.28-6.24,6.04-9,8.6l55.98,51.98c6.85-10.74,11.97-20.57,15.86-28.24v-.1l-48.92-45.54Z" style="fill:#30f6ff;"/><path d="M463.79,457.35l5.02,11.56" style="fill:none; stroke:#182227; stroke-linecap:round; stroke-linejoin:round; stroke-width:4px;"/><path d="M395.43,503.2c-12.69-22.52-26.81-50.25-26.81-50.25" style="fill:none; stroke:#182227; stroke-linecap:round; stroke-linejoin:round; stroke-width:4px;"/><path d="M362.28,337.11c-2.25-.51-9.62-.82-9.62-.82" style="fill:none; stroke:#182227; stroke-linecap:round; stroke-linejoin:round; stroke-width:4px;"/><path d="M481.8,440.16c-5.73,5.42-17.29,16.47-18.11,17.29v.11l5.12,11.35c0,.11,.1,.11,.2,0l13-28.65c0-.1-.1-.2-.21-.1Z" style="fill:#182227; isolation:isolate; opacity:.25;"/><path d="M392.87,219.12c-8.18-17.4-24.86-28.04-52.59-31.01-31.83-3.38-57.21,16.58-61,47.69-1.02,6.96-1.22,24.25-1.02,42.47,0,.51-.41,1.02-1.02,.92-8.6-.62-69.18-2.56-70.82,60.17,0,.51-.41,1.02-.92,1.13-6.14,.92-40.62,7.67-53.52,45.43-1.64,4.91-2.86,9.72-3.58,14.33-2.87,17.4,.2,33.15,6.86,45.95,10.23,19.75,28.96,32.64,47.38,34.38h.2c67.85,6.14,72.15-65.39,72.25-67.85,0,0,0-.1,.1-.1,32.34-8.49,47.38-26.3,53.42-45.54,8.8-28.14-1.54-59.25-5.32-69.18-.72-1.94-1.84-3.68-3.28-5.11-5.63-5.94-21.08-24.15-10.64-39.2,12.89-18.42,37.25,4,38.17,4.92h.1c.51-.21,5.02-2.05,6.65-16.27,0-.11,.11-.11,.21-.11,17.09,8.5,16.88-7.57,16.88-9.31,0-.1,.11-.1,.11-.1,13.2,8.18,24.25,2.56,24.97,2.15v-.11c-.31-5.93-1.64-11.56-3.59-15.65Z" style="fill:#6a2916;"/><path d="M255.34,385.92c-1.43,2.15-40.01,62.63-96.4,24.05-3.68-2.66-7.47-5.94-10.44-9.62-.1-.1-.2,0-.2,0-2.77,17.4,.2,32.95,6.96,45.74,10.33,19.65,29.16,32.65,47.58,34.39,26.51,2.45,43.29-6.96,53.93-19.55,16.68-19.65,18.32-46.87,18.32-48.3,0,0,0-.1,.1-.1,31.83-8.39,47.07-25.69,53.21-45.13,0-.1-.1-.21-.2-.1-14.63,16.68-37.25,27.73-72.86,18.62Z" style="fill:#010000; isolation:isolate; opacity:.25;"/><path d="M278.16,265.58v12.99" style="fill:none; stroke:#010000; stroke-linecap:round; stroke-linejoin:round; stroke-width:4px;"/><path d="M291.05,407.1c-6.75,2.77-11.25,4.2-15.96,5.63" style="fill:none; stroke:#182227; stroke-linecap:round; stroke-linejoin:round; stroke-width:4px;"/><path d="M287.98,585.17h51.37c.93,0,1.74,.81,1.54,1.84-1.43,8.39-8.8,43.28-35,43.28s-20.88-36.63-19.44-43.9c.2-.71,.82-1.22,1.53-1.22Z" style="fill:#2ea9ae;"/><path d="M257.08,540.75h134.36" style="fill:none; stroke:#182227; stroke-linecap:round; stroke-linejoin:round; stroke-width:4px;"/><path d="M462.15,929.62c1.74,7.16,3.69,14.53,5.84,21.7l.1,.1h138.25q.11,0,.11-.1c0-1.03-.11-10.44-6.76-21.8l-.1-.1h-137.33c0,.1-.11,.2-.11,.2Z" style="fill:#1f2b30;"/><path d="M313.16,191.69c-5.32,7.47-13,13.1-21.9,15.86" style="fill:none; stroke:#010000; stroke-linecap:round; stroke-linejoin:round; stroke-width:4px;"/></g><g><path d="M280.01,723.43h30.8v134.04h-30.8v-134.04Z" style="fill:#7d1c7d;"/><path d="M310.81,752.91v-29.48h-30.8v37.6l30.8-8.12Z" style="isolation:isolate; opacity:.3;"/><path d="M260.32,717.34h70.06v30.8h-70.06v-30.8Z" style="fill:#ff326c;"/><path d="M260.32,736.44l70.06-14.68v-4.42h-70.06v19.1Z" style="isolation:isolate; opacity:.3;"/><path d="M330.26,846.49h-69.82q-.12,0-.12,.12v30.08q0,.12,.12,.12h69.82q.12,0,.12-.12l-.12-30.2q.12,0,0,0Z" style="fill:#ff326c;"/><path d="M161.37,709.82c-7.64,0-20.65,2.03-21.96-5.49l-26.5-149.56c-3.46-19.69,9.67-35.68,29.36-35.68h122.94c19.7,0,38.44,15.99,42.02,35.68l24.35,138.1-1.2,15.52-169.01,1.43Z" style="fill:#ff326c;"/><path d="M139.29,701.47v.95c0,8.24,6.68,14.92,14.92,14.92H455.23c8.24,0,14.92-6.68,14.92-14.92v-.95c0-8.24-6.68-14.92-14.92-14.92H154.21c-8.24,0-14.92,6.68-14.92,14.92Z" style="fill:#7d1c7d;"/><path d="M200.04,921.45v-27.22c0-9.43,7.64-17.06,17.07-17.06h156.6c9.43,0,17.07,7.63,17.07,17.06v27.22" style="fill:none; stroke:#000; stroke-linecap:round; stroke-linejoin:round; stroke-width:4px;"/><path d="M295.41,877.17v22.2" style="fill:none; stroke:#000; stroke-linecap:round; stroke-linejoin:round; stroke-width:4px;"/><path d="M200.4,951.05c-14.63,0-26.5-11.87-26.5-26.5s11.87-26.5,26.5-26.5,26.5,11.87,26.5,26.5-11.87,26.5-26.5,26.5Z"/><path d="M200.4,931.95c-4.08,0-7.4-3.3-7.4-7.4s3.32-7.4,7.4-7.4,7.4,3.32,7.4,7.4-3.32,7.4-7.4,7.4Z" style="fill:#ff326c;"/><path d="M390.78,951.05c-14.63,0-26.5-11.87-26.5-26.5s11.87-26.5,26.5-26.5,26.5,11.87,26.5,26.5-11.87,26.5-26.5,26.5Z"/><path d="M390.78,931.95c-4.08,0-7.4-3.3-7.4-7.4s3.32-7.4,7.4-7.4,7.4,3.32,7.4,7.4-3.32,7.4-7.4,7.4Z" style="fill:#ff326c;"/><path d="M294.93,951.05c-14.63,0-26.49-11.87-26.49-26.5s11.86-26.5,26.49-26.5,26.5,11.87,26.5,26.5-11.86,26.5-26.5,26.5Z"/><path d="M294.93,931.95c-4.09,0-7.4-3.3-7.4-7.4s3.31-7.4,7.4-7.4,7.4,3.32,7.4,7.4-3.31,7.4-7.4,7.4Z" style="fill:#ff326c;"/><path d="M280.01,846.49h30.8" style="fill:none; stroke:#000; stroke-linecap:round; stroke-linejoin:round; stroke-width:4px;"/><path d="M279.89,748.14h30.92" style="fill:none; stroke:#000; stroke-linecap:round; stroke-linejoin:round; stroke-width:4px;"/><path d="M260.32,717.34h70.06" style="fill:none; stroke:#000; stroke-linecap:round; stroke-linejoin:round; stroke-width:4px;"/><path d="M272.85,686.55l-13.84-74.01" style="fill:none; stroke:#000; stroke-linecap:round; stroke-linejoin:round; stroke-width:4px;"/><path d="M235.37,686.55l-13.96-74.01" style="fill:none; stroke:#000; stroke-linecap:round; stroke-linejoin:round; stroke-width:4px;"/><path d="M197.89,686.55l-13.96-74.01" style="fill:none; stroke:#000; stroke-linecap:round; stroke-linejoin:round; stroke-width:4px;"/></g><g><path d="M1098.03,940.46c5.47-6.96-22.48-18.16-42.55-25.46-2.65-.99-5.14-1.82-7.38-2.65l-1.08,2.4-274.83,3.4-7.88,.09c-9.37,0-17,7.63-17,17v5.14c0,.42,.33,.66,.66,.66h348.89c.42,0,.92-.16,1.17-.58Z" style="fill:#30f6ff;"/><path d="M1055.48,915c-2.32-.91-5.06-1.74-7.38-2.57l-1.08,2.41-274.83,3.31s1.16,14.19,11.44,22.89h283.54s-13.1-7.96-11.69-26.04Z" style="fill:#0c5053; isolation:isolate; opacity:.3;"/><path d="M757.34,940.21v-6.13" style="fill:none; stroke:#0c5053; stroke-linecap:round; stroke-linejoin:round; stroke-width:4px;"/><path d="M765.05,940.21v-6.13" style="fill:none; stroke:#0c5053; stroke-linecap:round; stroke-linejoin:round; stroke-width:4px;"/><path d="M869.13,914.09c-3.73-16.83-9.78-60.37-10.28-65.76q0-.09-.08-.09h-1.75c-25.21,0-38.14,31.19-42.29,38.98-.08,.33-.33,.5-.66,.58-2.49,.67-15.01,4.23-24.88,8.79-1.25,1.83-9.46,13.52-11.95,17.42v.08c2.99,17.25,10.37,26.95,42.55,26.95h63.69c-4.64-1.07-11.53-14.01-14.35-26.95Z" style="fill:#30f6ff;"/><path d="M828.5,935.24v5.8s58.71,0,58.71,0l-16.09-22.8h-25.62c-9.37,0-16.92,7.63-17,17Z" style="fill:#30f6ff;"/><path d="M1047.52,876.27v-.08s-33.84-18.24-33.84-18.24l-42.04-17.75h-.09c-34,6.72-68,27.95-69.74,29.02,9.87,17.5,20.9,37.16,23.3,43.21,4.23,10.53,3.98,25.79-5.97,28.61h127.38c6.89-23.38,8.22-46.27,1-64.77Z" style="fill:#30f6ff;"/><path d="M1015.26,873.12c.25-.08,.5,0,.58,.25,6.97,16.09,25.96,9.79,31.6,2.82v-.08c-5.81-14.6-16.92-26.62-35-34.09-11.94-4.97-26.37-4.72-40.89-1.74q0-.08,0,0c-2.82,32.43,29.45,39.89,43.71,32.84Z" style="fill:#0c5053;"/><path d="M783.55,913.18c6.71-2.32,10.86-7.96,9.29-12.61-.59-1.74-1.91-3.15-3.57-3.98h-.08c-6.89,3.15-12.53,6.89-12.53,10.45,0,2.41,.17,4.65,.58,6.97q0,.08,.09,.08c2.15,0,4.14-.33,6.22-.91Z" style="fill:#0c5053;"/><path d="M828.41,940.21v-4.89c0-9.37,7.63-17,17-17h25.63" style="fill:none; stroke:#0c5053; stroke-linecap:round; stroke-linejoin:round; stroke-width:4px;"/><path d="M819.79,939.05v1.99s8.62,0,8.62,0v-5.72c0-5.31,2.41-9.95,6.14-13.1-8.38,1.08-14.84,8.21-14.76,16.83Z" style="fill:#0c5053; isolation:isolate; opacity:.3;"/><path d="M838.53,940.21v-6.13" style="fill:none; stroke:#0c5053; stroke-linecap:round; stroke-linejoin:round; stroke-width:4px;"/><path d="M846.24,940.21v-6.13" style="fill:none; stroke:#0c5053; stroke-linecap:round; stroke-linejoin:round; stroke-width:4px;"/><path d="M952.15,940.21v-6.13" style="fill:none; stroke:#0c5053; stroke-linecap:round; stroke-linejoin:round; stroke-width:4px;"/><path d="M959.86,940.21v-6.13" style="fill:none; stroke:#0c5053; stroke-linecap:round; stroke-linejoin:round; stroke-width:4px;"/><path d="M951.4,876.11c-1.57,7.71,1.49,30.93,15.43,41.71" style="fill:none; stroke:#0c5053; stroke-linecap:round; stroke-linejoin:round; stroke-width:4px;"/><path d="M941.28,940.21v-4.89c0-9.37,7.63-17,17-17h28.2" style="fill:none; stroke:#0c5053; stroke-linecap:round; stroke-linejoin:round; stroke-width:4px;"/><path d="M899.24,941.04c13.02,0,41.88-.08,41.88-.08v-5.31c0-9.78,7.96-17.74,17.75-17.74h7.29c.25,0,.34-.25,.17-.42-4.56-3.56-12.36-17.33-14.18-26.29-.08-.5-.67-.58-.91-.16-3.49,6.63-21.4,37.73-52,50Z" style="fill:#0c5053; isolation:isolate; opacity:.3;"/><path d="M819.79,941.04c-33.67,0-39.23-11.86-41.72-22.89" style="fill:none; stroke:#0c5053; stroke-linecap:round; stroke-linejoin:round; stroke-width:4px;"/><path d="M1051.92,913.68c-.92,8.46-2.99,19.24-5.4,27.36" style="fill:none; stroke:#0c5053; stroke-linecap:round; stroke-linejoin:round; stroke-width:4px;"/><path d="M836.96,890.79c3.81,3.4,8.79,5.3,13.93,5.39" style="fill:none; stroke:#0c5053; stroke-linecap:round; stroke-linejoin:round; stroke-width:4px;"/><path d="M925.19,912.43c-4.81-11.28-23.38-43.21-23.38-43.21-9.04-9.78-20.24-21.72-42.79-20.98q-.09,0-.09,.09c.5,5.55,4.48,58.13,8.13,74.97,2.82,12.85,11.69,16.67,16.42,17.74h35.66c9.95-2.82,10.28-18.16,6.05-28.61Z" style="fill:#0c5053;"/></g></svg>