<?xml version="1.0" encoding="utf-8"?>
<!-- Generator: Adobe Illustrator 26.4.1, SVG Export Plug-In . SVG Version: 6.00 Build 0)  -->
<svg version="1.1" id="Layer_1" xmlns="http://www.w3.org/2000/svg" xmlns:xlink="http://www.w3.org/1999/xlink" x="0px" y="0px"
	 viewBox="0 0 2500 1499" style="enable-background:new 0 0 2500 1499;" xml:space="preserve">
<style type="text/css">
	.st0{fill:#FFFFFF;}
</style>
<path class="st0" d="M1250,0C916.8,0,708.5,166.6,625.2,499.6c125-166.6,270.7-229,437.3-187.4c95.1,23.7,163,92.7,238.2,169
	c122.5,124.3,264.3,268.2,574,268.2c333.2,0,541.5-166.6,624.7-499.7c-124.9,166.6-270.7,229-437.3,187.4
	c-95-23.7-163-92.7-238.2-169C1701.5,143.9,1559.7,0,1250,0L1250,0z M625.2,749.5C292.1,749.5,83.8,916,0.5,1249.2
	c124.9-166.6,270.7-229,437.3-187.4c95,23.8,163,92.7,238.2,169c122.5,124.3,264.3,268.2,574,268.2c333.2,0,541.5-166.6,624.8-499.7
	c-125,166.6-270.7,229-437.3,187.4c-95.1-23.7-163-92.7-238.2-169C1076.7,893.4,934.9,749.5,625.2,749.5L625.2,749.5z"/>
</svg>
