<?xml version="1.0" encoding="utf-8"?>
<!-- Generator: Adobe Illustrator 26.4.1, SVG Export Plug-In . SVG Version: 6.00 Build 0)  -->
<svg version="1.1" id="Layer_1" xmlns="http://www.w3.org/2000/svg" xmlns:xlink="http://www.w3.org/1999/xlink" x="0px" y="0px"
	 viewBox="0 0 2500 2500" style="enable-background:new 0 0 2500 2500;" xml:space="preserve">
<style type="text/css">
	.st0{fill:#FFFFFF;}
</style>
<path class="st0" d="M1247.2,1108.5c-97.6,0-168,63.7-168,159.2c0,95.5,79.2,159.2,176.9,159.2c59,0,111-23.3,143.2-62.7l-67.6-39.1
	c-17.9,19.5-45,30.9-75.5,30.9c-42.4,0-78.3-22.1-91.7-57.5h247.8c1.9-9.9,3.1-20.2,3.1-30.9
	C1415.2,1172.2,1344.8,1108.5,1247.2,1108.5L1247.2,1108.5z M1163.5,1236.7c11.1-35.3,41.3-57.5,83.6-57.5
	c42.4,0,72.6,22.2,83.6,57.5H1163.5z M2199.3,1108.5c-97.6,0-168,63.7-168,159.2c0,95.5,79.2,159.2,176.9,159.2
	c59,0,111-23.3,143.2-62.7l-67.6-39.1c-17.9,19.5-45,30.9-75.5,30.9c-42.4,0-78.3-22.1-91.7-57.5h247.8c1.9-9.9,3.1-20.2,3.1-30.9
	C2367.4,1172.2,2297,1108.5,2199.3,1108.5L2199.3,1108.5z M2115.8,1236.7c11.1-35.3,41.3-57.5,83.6-57.5c42.4,0,72.6,22.2,83.6,57.5
	H2115.8z M1770.7,1267.7c0,53.1,34.7,88.4,88.4,88.4c36.4,0,63.8-16.5,77.8-43.5l67.9,39.2c-28.1,46.9-80.8,75.1-145.7,75.1
	c-97.7,0-168-63.7-168-159.2c0-95.5,70.4-159.2,168-159.2c64.9,0,117.5,28.2,145.7,75.1l-67.9,39.2c-14.1-27-41.4-43.5-77.8-43.5
	C1805.4,1179.3,1770.7,1214.6,1770.7,1267.7z M2500,1011.2V1418h-79.6v-406.8H2500z M326.7,967L653.5,1533H0L326.7,967z
	 M1143.6,1011.2l-245,424.4l-245-424.4h91.9l153.2,265.3l153.2-265.3H1143.6z M1664.5,1117.4v85.7c-8.8-2.6-18.2-4.3-28.3-4.3
	c-51.4,0-88.4,35.4-88.4,88.4V1418h-79.6v-300.7h79.6v81.4C1547.8,1153.8,1600.1,1117.4,1664.5,1117.4z"/>
</svg>
